<?xml version="1.0" standalone="no"?>
<!DOCTYPE svg PUBLIC "-//W3C//DTD SVG 1.1//EN" "http://www.w3.org/Graphics/SVG/1.1/DTD/svg11.dtd" >
<svg>
<metadata>
Created by FontForge 20090622 at Thu Apr 21 01:42:46 2016
 By deploy user
URW Software, Copyright 1994 by URW
</metadata>
<defs>
<font id="AlternateGotNo3D" horiz-adv-x="410" >
  <font-face 
    font-family="Alternate Gothic No3 D"
    font-weight="400"
    font-stretch="normal"
    units-per-em="1000"
    panose-1="2 0 5 6 4 0 0 2 0 4"
    ascent="800"
    descent="-200"
    x-height="497"
    cap-height="667"
    bbox="-93 -177 740 846"
    underline-thickness="64"
    underline-position="-3"
    unicode-range="U+0005-U+2122"
  />
<missing-glyph horiz-adv-x="153" 
 />
    <glyph glyph-name=".notdef" horiz-adv-x="153" 
 />
    <glyph glyph-name=".null" horiz-adv-x="0" 
 />
    <glyph glyph-name="nonmarkingreturn" horiz-adv-x="153" 
 />
    <glyph glyph-name="space" unicode=" " horiz-adv-x="153" 
 />
    <glyph glyph-name="space" unicode="&#xa0;" horiz-adv-x="153" 
 />
    <glyph glyph-name="Atilde" unicode="&#xc3;" horiz-adv-x="451" 
d="M155 145l-27 -145h-101l128 667h141l135 -667h-106l-28 145h-142zM225 539l-54 -299h109zM126 794q15 8 27.5 11.5t29.5 3.5q12 0 21.5 -1.5t23.5 -6.5q22 -8 30.5 -10t19.5 -2t20 3.5t28 14.5v-70q-19 -11 -28 -14t-20 -3t-19.5 2t-30.5 10q-14 5 -23.5 6.5t-21.5 1.5
q-17 0 -29.5 -3.5t-27.5 -11.5v69z" />
    <glyph glyph-name="Aring" unicode="&#xc5;" horiz-adv-x="451" 
d="M155 145l-27 -145h-101l128 667h141l135 -667h-106l-28 145h-142zM225 539l-54 -299h109zM228 846q30 0 51.5 -20t21.5 -49t-21.5 -49.5t-51.5 -20.5q-31 0 -52.5 20.5t-21.5 49.5t21.5 49t52.5 20zM227 811q-14 0 -25 -10t-11 -24t10.5 -24.5t26.5 -10.5q15 0 25.5 10.5
t10.5 24.5t-10.5 24t-26.5 10z" />
    <glyph glyph-name="Edieresis" unicode="&#xcb;" horiz-adv-x="373" 
d="M353 572h-199v-176h147v-95h-147v-206h199v-95h-302v667h302v-95zM154 720h-87v89h87v-89zM307 720h-87v89h87v-89z" />
    <glyph glyph-name="Eacute" unicode="&#xc9;" horiz-adv-x="373" 
d="M353 572h-199v-176h147v-95h-147v-206h199v-95h-302v667h302v-95zM185 809h96l-72 -89h-70z" />
    <glyph glyph-name="Egrave" unicode="&#xc8;" horiz-adv-x="373" 
d="M353 572h-199v-176h147v-95h-147v-206h199v-95h-302v667h302v-95zM158 720l-72 89h97l45 -89h-70z" />
    <glyph glyph-name="Ecircumflex" unicode="&#xca;" horiz-adv-x="373" 
d="M353 572h-199v-176h147v-95h-147v-206h199v-95h-302v667h302v-95zM239 809l63 -89h-84l-31 34l-31 -34h-84l63 89h104z" />
    <glyph glyph-name="Idieresis" unicode="&#xcf;" horiz-adv-x="205" 
d="M154 0h-103v667h103v-667zM76 720h-87v89h87v-89zM216 720h-87v89h87v-89z" />
    <glyph glyph-name="Iacute" unicode="&#xcd;" horiz-adv-x="205" 
d="M154 0h-103v667h103v-667zM101 809h96l-72 -89h-70z" />
    <glyph glyph-name="Igrave" unicode="&#xcc;" horiz-adv-x="205" 
d="M154 0h-103v667h103v-667zM73 720l-72 89h97l45 -89h-70z" />
    <glyph glyph-name="Icircumflex" unicode="&#xce;" horiz-adv-x="205" 
d="M153 0h-103v667h103v-667zM154 809l63 -89h-84l-31 34l-31 -34h-84l63 89h104z" />
    <glyph glyph-name="Ntilde" unicode="&#xd1;" horiz-adv-x="471" 
d="M421 0h-92l-180 444v-444h-98v667h104l168 -415v415h98v-667zM136 794q15 8 27.5 11.5t29.5 3.5q12 0 21.5 -1.5t23.5 -6.5q22 -8 30.5 -10t19.5 -2t20 3.5t28 14.5v-70q-19 -11 -28 -14t-20 -3t-19.5 2t-30.5 10q-14 5 -23.5 6.5t-21.5 1.5q-17 0 -29.5 -3.5
t-27.5 -11.5v69z" />
    <glyph glyph-name="Odieresis" unicode="&#xd6;" horiz-adv-x="452" 
d="M408 212q0 -57 -9 -93t-29 -65q-46 -64 -144 -64t-144 64q-20 29 -29 65t-9 93v243q0 57 9 93t29 65q46 64 144 64t144 -64q20 -29 29 -65t9 -93v-243zM147 214q0 -20 0.5 -33.5t2 -24t4 -18t6.5 -15.5q9 -17 26.5 -26.5t39.5 -9.5t39.5 9.5t26.5 26.5q4 8 6.5 15.5
t4 17.5t2 24t0.5 34v239q0 20 -0.5 34t-2 24t-4 17.5t-6.5 15.5q-9 17 -26.5 26.5t-39.5 9.5t-39.5 -9.5t-26.5 -26.5q-8 -15 -10.5 -33t-2.5 -58v-239zM193 720h-87v89h87v-89zM346 720h-87v89h87v-89z" />
    <glyph glyph-name="Oacute" unicode="&#xd3;" horiz-adv-x="452" 
d="M408 212q0 -57 -9 -93t-29 -65q-46 -64 -144 -64t-144 64q-20 29 -29 65t-9 93v243q0 57 9 93t29 65q46 64 144 64t144 -64q20 -29 29 -65t9 -93v-243zM147 214q0 -20 0.5 -33.5t2 -24t4 -18t6.5 -15.5q9 -17 26.5 -26.5t39.5 -9.5t39.5 9.5t26.5 26.5q4 8 6.5 15.5
t4 17.5t2 24t0.5 34v239q0 20 -0.5 34t-2 24t-4 17.5t-6.5 15.5q-9 17 -26.5 26.5t-39.5 9.5t-39.5 -9.5t-26.5 -26.5q-8 -15 -10.5 -33t-2.5 -58v-239zM224 809h96l-72 -89h-70z" />
    <glyph glyph-name="Ograve" unicode="&#xd2;" horiz-adv-x="452" 
d="M408 212q0 -57 -9 -93t-29 -65q-46 -64 -144 -64t-144 64q-20 29 -29 65t-9 93v243q0 57 9 93t29 65q46 64 144 64t144 -64q20 -29 29 -65t9 -93v-243zM147 214q0 -20 0.5 -33.5t2 -24t4 -18t6.5 -15.5q9 -17 26.5 -26.5t39.5 -9.5t39.5 9.5t26.5 26.5q4 8 6.5 15.5
t4 17.5t2 24t0.5 34v239q0 20 -0.5 34t-2 24t-4 17.5t-6.5 15.5q-9 17 -26.5 26.5t-39.5 9.5t-39.5 -9.5t-26.5 -26.5q-8 -15 -10.5 -33t-2.5 -58v-239zM197 720l-72 89h97l45 -89h-70z" />
    <glyph glyph-name="Ocircumflex" unicode="&#xd4;" horiz-adv-x="452" 
d="M408 212q0 -57 -9 -93t-29 -65q-46 -64 -144 -64t-144 64q-20 29 -29 65t-9 93v243q0 57 9 93t29 65q46 64 144 64t144 -64q20 -29 29 -65t9 -93v-243zM147 214q0 -20 0.5 -33.5t2 -24t4 -18t6.5 -15.5q9 -17 26.5 -26.5t39.5 -9.5t39.5 9.5t26.5 26.5q4 8 6.5 15.5
t4 17.5t2 24t0.5 34v239q0 20 -0.5 34t-2 24t-4 17.5t-6.5 15.5q-9 17 -26.5 26.5t-39.5 9.5t-39.5 -9.5t-26.5 -26.5q-8 -15 -10.5 -33t-2.5 -58v-239zM278 809l63 -89h-84l-31 34l-31 -34h-84l63 89h104z" />
    <glyph glyph-name="Otilde" unicode="&#xd5;" horiz-adv-x="452" 
d="M408 212q0 -57 -9 -93t-29 -65q-46 -64 -144 -64t-144 64q-20 29 -29 65t-9 93v243q0 57 9 93t29 65q46 64 144 64t144 -64q20 -29 29 -65t9 -93v-243zM147 214q0 -20 0.5 -33.5t2 -24t4 -18t6.5 -15.5q9 -17 26.5 -26.5t39.5 -9.5t39.5 9.5t26.5 26.5q4 8 6.5 15.5
t4 17.5t2 24t0.5 34v239q0 20 -0.5 34t-2 24t-4 17.5t-6.5 15.5q-9 17 -26.5 26.5t-39.5 9.5t-39.5 -9.5t-26.5 -26.5q-8 -15 -10.5 -33t-2.5 -58v-239zM126 794q15 8 27.5 11.5t29.5 3.5q12 0 21.5 -1.5t23.5 -6.5q22 -8 30.5 -10t19.5 -2t20 3.5t28 14.5v-70
q-19 -11 -28 -14t-20 -3t-19.5 2t-30.5 10q-14 5 -23.5 6.5t-21.5 1.5q-17 0 -29.5 -3.5t-27.5 -11.5v69z" />
    <glyph glyph-name="Scaron" unicode="&#x160;" horiz-adv-x="426" 
d="M302 481q-24 99 -88 99q-29 0 -48 -19.5t-19 -48.5q0 -37 28 -67l10.5 -12t13 -11.5l23 -18l41.5 -31.5l36 -29t26 -22.5l20 -19.5t17 -19q20 -25 31.5 -56.5t11.5 -65.5q0 -38 -13.5 -69t-37.5 -53.5t-57.5 -35t-74.5 -12.5q-171 0 -202 188l99 29q19 -120 103 -120
q34 0 55 21t21 55q0 16 -4.5 29.5t-16 28.5t-30.5 32t-48 40l-55 43t-31.5 26.5t-19 19t-16.5 20.5q-37 48 -37 111q0 36 13 66t36 52t55 34t70 12q144 0 187 -167zM161 720l-63 89h84l31 -34l31 34h84l-63 -89h-104z" />
    <glyph glyph-name="Udieresis" unicode="&#xdc;" horiz-adv-x="454" 
d="M404 667v-452q0 -63 -8.5 -100t-29.5 -65q-22 -29 -57.5 -44.5t-80.5 -15.5q-94 0 -139 60q-21 28 -29.5 65t-8.5 100v452h103v-469q0 -60 17 -85.5t56 -25.5q40 0 57 25.5t17 85.5v469h103zM194 720h-87v89h87v-89zM347 720h-87v89h87v-89z" />
    <glyph glyph-name="Uacute" unicode="&#xda;" horiz-adv-x="454" 
d="M404 667v-452q0 -63 -8.5 -100t-29.5 -65q-22 -29 -57.5 -44.5t-80.5 -15.5q-94 0 -139 60q-21 28 -29.5 65t-8.5 100v452h103v-469q0 -60 17 -85.5t56 -25.5q40 0 57 25.5t17 85.5v469h103zM225 809h96l-72 -89h-70z" />
    <glyph glyph-name="Ugrave" unicode="&#xd9;" horiz-adv-x="454" 
d="M404 667v-452q0 -63 -8.5 -100t-29.5 -65q-22 -29 -57.5 -44.5t-80.5 -15.5q-94 0 -139 60q-21 28 -29.5 65t-8.5 100v452h103v-469q0 -60 17 -85.5t56 -25.5q40 0 57 25.5t17 85.5v469h103zM198 720l-72 89h97l45 -89h-70z" />
    <glyph glyph-name="Ucircumflex" unicode="&#xdb;" horiz-adv-x="454" 
d="M404 667v-452q0 -63 -8.5 -100t-29.5 -65q-22 -29 -57.5 -44.5t-80.5 -15.5q-94 0 -139 60q-21 28 -29.5 65t-8.5 100v452h103v-469q0 -60 17 -85.5t56 -25.5q40 0 57 25.5t17 85.5v469h103zM279 809l63 -89h-84l-31 34l-31 -34h-84l63 89h104z" />
    <glyph glyph-name="Yacute" unicode="&#xdd;" horiz-adv-x="440" 
d="M270 0h-103v260l-150 407h114l89 -282l92 282h112l-154 -407v-260zM219 809h96l-72 -89h-70z" />
    <glyph glyph-name="Zcaron" horiz-adv-x="389" 
d="M369 0h-349v97l233 475h-211v95h324v-95l-232 -477h235v-95zM142 720l-63 89h84l31 -34l31 34h84l-63 -89h-104z" />
    <glyph glyph-name="Ydieresis" unicode="&#x178;" horiz-adv-x="440" 
d="M270 0h-103v260l-150 407h114l89 -282l92 282h112l-154 -407v-260zM187 720h-87v89h87v-89zM340 720h-87v89h87v-89z" />
    <glyph glyph-name="adieresis" unicode="&#xe4;" horiz-adv-x="396" 
d="M258 0q-8 22 -8 58q-34 -37 -58 -51t-54 -14q-48 0 -74.5 35t-26.5 97q0 48 19.5 80t66.5 60q8 5 18 10.5t24 12l34.5 15.5l50.5 22v26q0 38 -11.5 54.5t-37.5 16.5t-39 -16.5t-16 -54.5h-98q6 75 48.5 114t117.5 39q68 0 102 -38q8 -10 13 -19.5t8 -22t4.5 -29
t1.5 -39.5v-221q0 -28 0.5 -47.5t1.5 -34.5t3.5 -27l5.5 -26h-96zM250 256q-62 -33 -88.5 -61.5t-26.5 -63.5q0 -25 13.5 -40.5t33.5 -15.5q41 0 68 45v136zM169 578h-87v89h87v-89zM322 578h-87v89h87v-89z" />
    <glyph glyph-name="aacute" unicode="&#xe1;" horiz-adv-x="396" 
d="M258 0q-8 22 -8 58q-34 -37 -58 -51t-54 -14q-48 0 -74.5 35t-26.5 97q0 48 19.5 80t66.5 60q8 5 18 10.5t24 12l34.5 15.5l50.5 22v26q0 38 -11.5 54.5t-37.5 16.5t-39 -16.5t-16 -54.5h-98q6 75 48.5 114t117.5 39q68 0 102 -38q8 -10 13 -19.5t8 -22t4.5 -29
t1.5 -39.5v-221q0 -28 0.5 -47.5t1.5 -34.5t3.5 -27l5.5 -26h-96zM250 256q-62 -33 -88.5 -61.5t-26.5 -63.5q0 -25 13.5 -40.5t33.5 -15.5q41 0 68 45v136zM196 667h96l-72 -89h-70z" />
    <glyph glyph-name="agrave" unicode="&#xe0;" horiz-adv-x="396" 
d="M258 0q-8 22 -8 58q-34 -37 -58 -51t-54 -14q-48 0 -74.5 35t-26.5 97q0 48 19.5 80t66.5 60q8 5 18 10.5t24 12l34.5 15.5l50.5 22v26q0 38 -11.5 54.5t-37.5 16.5t-39 -16.5t-16 -54.5h-98q6 75 48.5 114t117.5 39q68 0 102 -38q8 -10 13 -19.5t8 -22t4.5 -29
t1.5 -39.5v-221q0 -28 0.5 -47.5t1.5 -34.5t3.5 -27l5.5 -26h-96zM250 256q-62 -33 -88.5 -61.5t-26.5 -63.5q0 -25 13.5 -40.5t33.5 -15.5q41 0 68 45v136zM169 578l-72 89h97l45 -89h-70z" />
    <glyph glyph-name="acircumflex" unicode="&#xe2;" horiz-adv-x="396" 
d="M258 0q-8 22 -8 58q-34 -37 -58 -51t-54 -14q-48 0 -74.5 35t-26.5 97q0 48 19.5 80t66.5 60q8 5 18 10.5t24 12l34.5 15.5l50.5 22v26q0 38 -11.5 54.5t-37.5 16.5t-39 -16.5t-16 -54.5h-98q6 75 48.5 114t117.5 39q68 0 102 -38q8 -10 13 -19.5t8 -22t4.5 -29
t1.5 -39.5v-221q0 -28 0.5 -47.5t1.5 -34.5t3.5 -27l5.5 -26h-96zM250 256q-62 -33 -88.5 -61.5t-26.5 -63.5q0 -25 13.5 -40.5t33.5 -15.5q41 0 68 45v136zM250 667l63 -89h-84l-31 34l-31 -34h-84l63 89h104z" />
    <glyph glyph-name="atilde" unicode="&#xe3;" horiz-adv-x="396" 
d="M258 0q-8 22 -8 58q-34 -37 -58 -51t-54 -14q-48 0 -74.5 35t-26.5 97q0 48 19.5 80t66.5 60q8 5 18 10.5t24 12l34.5 15.5l50.5 22v26q0 38 -11.5 54.5t-37.5 16.5t-39 -16.5t-16 -54.5h-98q6 75 48.5 114t117.5 39q68 0 102 -38q8 -10 13 -19.5t8 -22t4.5 -29
t1.5 -39.5v-221q0 -28 0.5 -47.5t1.5 -34.5t3.5 -27l5.5 -26h-96zM250 256q-62 -33 -88.5 -61.5t-26.5 -63.5q0 -25 13.5 -40.5t33.5 -15.5q41 0 68 45v136zM98 652q15 8 28 11.5t30 3.5q11 0 20.5 -1.5t23.5 -6.5q22 -8 30.5 -9.5t19.5 -1.5t20 3t28 14v-69
q-18 -11 -27.5 -14t-20.5 -3q-6 0 -10.5 0.5t-9.5 1.5t-12 3t-18 6q-14 5 -23.5 6.5t-20.5 1.5q-17 0 -30 -3.5t-28 -11.5v69z" />
    <glyph glyph-name="aring" unicode="&#xe5;" horiz-adv-x="396" 
d="M258 0q-8 22 -8 58q-34 -37 -58 -51t-54 -14q-48 0 -74.5 35t-26.5 97q0 48 19.5 80t66.5 60q8 5 18 10.5t24 12l34.5 15.5l50.5 22v26q0 38 -11.5 54.5t-37.5 16.5t-39 -16.5t-16 -54.5h-98q6 75 48.5 114t117.5 39q68 0 102 -38q8 -10 13 -19.5t8 -22t4.5 -29
t1.5 -39.5v-221q0 -28 0.5 -47.5t1.5 -34.5t3.5 -27l5.5 -26h-96zM250 256q-62 -33 -88.5 -61.5t-26.5 -63.5q0 -25 13.5 -40.5t33.5 -15.5q41 0 68 45v136zM203 692q30 0 51.5 -20.5t21.5 -48.5q0 -30 -21.5 -50.5t-51.5 -20.5q-31 0 -52.5 20.5t-21.5 49.5t21.5 49.5
t52.5 20.5zM202 657q-15 0 -25.5 -10.5t-10.5 -24.5t10.5 -24.5t26.5 -10.5q15 0 25.5 10.5t10.5 24.5q0 15 -10.5 25t-26.5 10z" />
    <glyph glyph-name="edieresis" unicode="&#xeb;" horiz-adv-x="389" 
d="M133 233v-44q0 -65 13.5 -89.5t49.5 -24.5q45 0 56 44q2 8 3 17.5t1 35.5h93q0 -27 -1 -45t-3.5 -31.5t-6.5 -23t-10 -19.5q-38 -63 -132 -63q-87 0 -125 52q-17 23 -24 53.5t-7 81.5v148q0 30 2 51.5t6.5 38t12 29t19.5 23.5q42 40 113 40q77 0 117 -46q11 -12 18 -25.5
t11.5 -30.5t6.5 -39t2 -51v-82h-215zM255 342q0 45 -14.5 64t-46.5 19t-46.5 -19t-14.5 -64v-27h122v27zM162 578h-87v89h87v-89zM315 578h-87v89h87v-89z" />
    <glyph glyph-name="eacute" unicode="&#xe9;" horiz-adv-x="389" 
d="M133 233v-44q0 -65 13.5 -89.5t49.5 -24.5q45 0 56 44q2 8 3 17.5t1 35.5h93q0 -27 -1 -45t-3.5 -31.5t-6.5 -23t-10 -19.5q-38 -63 -132 -63q-87 0 -125 52q-17 23 -24 53.5t-7 81.5v148q0 30 2 51.5t6.5 38t12 29t19.5 23.5q42 40 113 40q77 0 117 -46q11 -12 18 -25.5
t11.5 -30.5t6.5 -39t2 -51v-82h-215zM255 342q0 45 -14.5 64t-46.5 19t-46.5 -19t-14.5 -64v-27h122v27zM193 667h96l-72 -89h-70z" />
    <glyph glyph-name="egrave" unicode="&#xe8;" horiz-adv-x="389" 
d="M133 233v-44q0 -65 13.5 -89.5t49.5 -24.5q45 0 56 44q2 8 3 17.5t1 35.5h93q0 -27 -1 -45t-3.5 -31.5t-6.5 -23t-10 -19.5q-38 -63 -132 -63q-87 0 -125 52q-17 23 -24 53.5t-7 81.5v148q0 30 2 51.5t6.5 38t12 29t19.5 23.5q42 40 113 40q77 0 117 -46q11 -12 18 -25.5
t11.5 -30.5t6.5 -39t2 -51v-82h-215zM255 342q0 45 -14.5 64t-46.5 19t-46.5 -19t-14.5 -64v-27h122v27zM166 578l-72 89h97l45 -89h-70z" />
    <glyph glyph-name="ecircumflex" unicode="&#xea;" horiz-adv-x="389" 
d="M133 233v-44q0 -65 13.5 -89.5t49.5 -24.5q45 0 56 44q2 8 3 17.5t1 35.5h93q0 -27 -1 -45t-3.5 -31.5t-6.5 -23t-10 -19.5q-38 -63 -132 -63q-87 0 -125 52q-17 23 -24 53.5t-7 81.5v148q0 30 2 51.5t6.5 38t12 29t19.5 23.5q42 40 113 40q77 0 117 -46q11 -12 18 -25.5
t11.5 -30.5t6.5 -39t2 -51v-82h-215zM255 342q0 45 -14.5 64t-46.5 19t-46.5 -19t-14.5 -64v-27h122v27zM247 667l63 -89h-84l-31 34l-31 -34h-84l63 89h104z" />
    <glyph glyph-name="idieresis" unicode="&#xef;" horiz-adv-x="180" 
d="M137 0h-93v497h93v-497zM64 578h-87v89h87v-89zM204 578h-87v89h87v-89z" />
    <glyph glyph-name="iacute" unicode="&#xed;" horiz-adv-x="180" 
d="M136 0h-93v497h93v-497zM88 667h96l-72 -89h-70z" />
    <glyph glyph-name="igrave" unicode="&#xec;" horiz-adv-x="180" 
d="M137 0h-93v497h93v-497zM61 578l-72 89h97l45 -89h-70z" />
    <glyph glyph-name="icircumflex" unicode="&#xee;" horiz-adv-x="180" 
d="M136 0h-93v497h93v-497zM142 667l63 -89h-84l-31 34l-31 -34h-84l63 89h104z" />
    <glyph glyph-name="ntilde" unicode="&#xf1;" horiz-adv-x="385" 
d="M136 433q32 38 61.5 54.5t62.5 16.5q81 0 81 -116v-388h-93v364q0 32 -7.5 45t-27.5 13q-40 0 -77 -50v-372h-93v497h93v-64zM92 652q15 8 28 11.5t30 3.5q11 0 20.5 -1.5t23.5 -6.5q22 -8 30.5 -9.5t19.5 -1.5t20 3t28 14v-69q-18 -11 -27.5 -14t-20.5 -3
q-6 0 -10.5 0.5t-9.5 1.5t-12 3t-18 6q-14 5 -23.5 6.5t-20.5 1.5q-17 0 -30 -3.5t-28 -11.5v69z" />
    <glyph glyph-name="odieresis" unicode="&#xf6;" horiz-adv-x="385" 
d="M345 172q0 -29 -2 -51t-6.5 -38.5t-12 -29t-18.5 -23.5q-42 -40 -113 -40q-72 0 -114 40q-11 11 -18.5 23.5t-12 29t-6.5 38.5t-2 51v153q0 29 2 50.5t6.5 38t12 29.5t18.5 24q42 40 114 40q71 0 113 -40q11 -11 18.5 -24t12 -29.5t6.5 -38t2 -50.5v-153zM133 166
q0 -48 14 -69.5t45 -21.5q32 0 46 21.5t14 69.5v165q0 48 -14 69.5t-46 21.5q-31 0 -45 -21.5t-14 -69.5v-165zM159 578h-87v89h87v-89zM312 578h-87v89h87v-89z" />
    <glyph glyph-name="oacute" unicode="&#xf3;" horiz-adv-x="385" 
d="M345 172q0 -29 -2 -51t-6.5 -38.5t-12 -29t-18.5 -23.5q-42 -40 -113 -40q-72 0 -114 40q-11 11 -18.5 23.5t-12 29t-6.5 38.5t-2 51v153q0 29 2 50.5t6.5 38t12 29.5t18.5 24q42 40 114 40q71 0 113 -40q11 -11 18.5 -24t12 -29.5t6.5 -38t2 -50.5v-153zM133 166
q0 -48 14 -69.5t45 -21.5q32 0 46 21.5t14 69.5v165q0 48 -14 69.5t-46 21.5q-31 0 -45 -21.5t-14 -69.5v-165zM191 667h96l-72 -89h-70z" />
    <glyph glyph-name="ograve" unicode="&#xf2;" horiz-adv-x="385" 
d="M345 172q0 -29 -2 -51t-6.5 -38.5t-12 -29t-18.5 -23.5q-42 -40 -113 -40q-72 0 -114 40q-11 11 -18.5 23.5t-12 29t-6.5 38.5t-2 51v153q0 29 2 50.5t6.5 38t12 29.5t18.5 24q42 40 114 40q71 0 113 -40q11 -11 18.5 -24t12 -29.5t6.5 -38t2 -50.5v-153zM133 166
q0 -48 14 -69.5t45 -21.5q32 0 46 21.5t14 69.5v165q0 48 -14 69.5t-46 21.5q-31 0 -45 -21.5t-14 -69.5v-165zM163 578l-72 89h97l45 -89h-70z" />
    <glyph glyph-name="ocircumflex" unicode="&#xf4;" horiz-adv-x="385" 
d="M345 172q0 -29 -2 -51t-6.5 -38.5t-12 -29t-18.5 -23.5q-42 -40 -113 -40q-72 0 -114 40q-11 11 -18.5 23.5t-12 29t-6.5 38.5t-2 51v153q0 29 2 50.5t6.5 38t12 29.5t18.5 24q42 40 114 40q71 0 113 -40q11 -11 18.5 -24t12 -29.5t6.5 -38t2 -50.5v-153zM133 166
q0 -48 14 -69.5t45 -21.5q32 0 46 21.5t14 69.5v165q0 48 -14 69.5t-46 21.5q-31 0 -45 -21.5t-14 -69.5v-165zM244 667l63 -89h-84l-31 34l-31 -34h-84l63 89h104z" />
    <glyph glyph-name="otilde" unicode="&#xf5;" horiz-adv-x="385" 
d="M345 172q0 -29 -2 -51t-6.5 -38.5t-12 -29t-18.5 -23.5q-42 -40 -113 -40q-72 0 -114 40q-11 11 -18.5 23.5t-12 29t-6.5 38.5t-2 51v153q0 29 2 50.5t6.5 38t12 29.5t18.5 24q42 40 114 40q71 0 113 -40q11 -11 18.5 -24t12 -29.5t6.5 -38t2 -50.5v-153zM133 166
q0 -48 14 -69.5t45 -21.5q32 0 46 21.5t14 69.5v165q0 48 -14 69.5t-46 21.5q-31 0 -45 -21.5t-14 -69.5v-165zM92 652q15 8 28 11.5t30 3.5q11 0 20.5 -1.5t23.5 -6.5q22 -8 30.5 -9.5t19.5 -1.5t20 3t28 14v-69q-18 -11 -27.5 -14t-20.5 -3q-6 0 -10.5 0.5t-9.5 1.5t-12 3
t-18 6q-14 5 -23.5 6.5t-20.5 1.5q-17 0 -30 -3.5t-28 -11.5v69z" />
    <glyph glyph-name="scaron" unicode="&#x161;" horiz-adv-x="362" 
d="M249 350q-15 39 -32.5 55.5t-44.5 16.5q-22 0 -35.5 -12t-13.5 -32q0 -10 3.5 -18.5t12.5 -17t25.5 -19t42.5 -24.5q42 -23 64 -37.5t37 -30.5q17 -17 26 -41.5t9 -52.5q0 -66 -42 -106.5t-111 -40.5q-64 0 -105 34t-65 106l87 30q15 -46 34.5 -65.5t48.5 -19.5
q23 0 38 14t15 36q0 21 -14.5 37t-55.5 38q-26 14 -43 24t-29 18.5t-20.5 15.5t-16.5 16q-36 38 -36 94q0 30 11 55.5t30 44t45.5 29t58.5 10.5q60 0 99 -29t62 -91zM129 578l-63 89h84l31 -34l31 34h84l-63 -89h-104z" />
    <glyph glyph-name="udieresis" unicode="&#xfc;" horiz-adv-x="385" 
d="M341 0h-93v64q-32 -38 -61.5 -54.5t-62.5 -16.5q-81 0 -81 116v388h93v-364q0 -32 7.5 -45t27.5 -13t39.5 13t37.5 37v372h93v-497zM159 578h-87v89h87v-89zM312 578h-87v89h87v-89z" />
    <glyph glyph-name="uacute" unicode="&#xfa;" horiz-adv-x="385" 
d="M341 0h-93v64q-32 -38 -61.5 -54.5t-62.5 -16.5q-81 0 -81 116v388h93v-364q0 -32 7.5 -45t27.5 -13t39.5 13t37.5 37v372h93v-497zM190 667h96l-72 -89h-70z" />
    <glyph glyph-name="ugrave" unicode="&#xf9;" horiz-adv-x="385" 
d="M341 0h-93v64q-32 -38 -61.5 -54.5t-62.5 -16.5q-81 0 -81 116v388h93v-364q0 -32 7.5 -45t27.5 -13t39.5 13t37.5 37v372h93v-497zM163 578l-72 89h97l45 -89h-70z" />
    <glyph glyph-name="ucircumflex" unicode="&#xfb;" horiz-adv-x="385" 
d="M341 0h-93v64q-32 -38 -61.5 -54.5t-62.5 -16.5q-81 0 -81 116v388h93v-364q0 -32 7.5 -45t27.5 -13t39.5 13t37.5 37v372h93v-497zM244 667l63 -89h-84l-31 34l-31 -34h-84l63 89h104z" />
    <glyph glyph-name="yacute" unicode="&#xfd;" horiz-adv-x="354" 
d="M344 497l-108 -476q-13 -61 -28 -99.5t-38 -60.5t-58 -30t-87 -8v96q5 -1 10 -1h7q38 0 61 22.5t23 59.5q0 14 -7 43l-109 454h98l73 -339l67 339h96zM175 667h96l-72 -89h-70z" />
    <glyph glyph-name="zcaron" horiz-adv-x="341" 
d="M318 0h-295v93l188 314h-172v90h279v-93l-188 -314h188v-90zM118 578l-63 89h84l31 -34l31 34h84l-63 -89h-104z" />
    <glyph glyph-name="ydieresis" unicode="&#xff;" horiz-adv-x="354" 
d="M344 497l-108 -476q-13 -61 -28 -99.5t-38 -60.5t-58 -30t-87 -8v96q5 -1 10 -1h7q38 0 61 22.5t23 59.5q0 14 -7 43l-109 454h98l73 -339l67 339h96zM144 578h-87v89h87v-89zM297 578h-87v89h87v-89z" />
    <glyph glyph-name="A" unicode="A" horiz-adv-x="451" 
d="M155 145l-27 -145h-101l128 667h141l135 -667h-106l-28 145h-142zM225 539l-54 -299h109z" />
    <glyph glyph-name="B" unicode="B" horiz-adv-x="456" 
d="M51 667h154q94 0 144.5 -44t50.5 -125q0 -60 -26.5 -96t-83.5 -53q67 -20 96.5 -57t29.5 -103q0 -89 -52 -139t-146 -50h-167v667zM191 395q48 0 76 25.5t28 68.5q0 39 -25 62q-13 11 -30.5 16t-46.5 5h-39v-177h37zM206 95q50 0 76.5 24.5t26.5 69.5q0 51 -32 81t-86 30
h-37v-205h52z" />
    <glyph glyph-name="C" unicode="C" horiz-adv-x="444" 
d="M302 450v17q0 55 -20 84t-58 29q-44 0 -61 -33q-5 -8 -8 -16.5t-5 -19.5t-2.5 -25.5t-0.5 -34.5v-222q0 -38 2.5 -60t8.5 -39q8 -20 26 -31.5t41 -11.5q58 0 73 69q3 12 4 27.5t2 50.5h104v-22q0 -110 -46 -166t-137 -56q-51 0 -89 19t-60 55q-9 15 -15.5 31t-10 36.5
t-5 47.5t-1.5 64v187q0 40 1.5 68t6 48.5t12 36.5t19.5 32q22 30 58 46t83 16q88 0 134.5 -54.5t46.5 -157.5v-15h-103z" />
    <glyph glyph-name="D" unicode="D" horiz-adv-x="450" 
d="M51 667h163q99 0 146 -51t47 -158v-249q0 -107 -47 -158t-146 -51h-163v667zM205 95q55 0 77 32t22 110v193q0 79 -22 110.5t-77 31.5h-51v-477h51z" />
    <glyph glyph-name="E" unicode="E" horiz-adv-x="373" 
d="M353 572h-199v-176h147v-95h-147v-206h199v-95h-302v667h302v-95z" />
    <glyph glyph-name="F" unicode="F" horiz-adv-x="367" 
d="M154 0h-103v667h305v-95h-202v-180h150v-95h-150v-297z" />
    <glyph glyph-name="G" unicode="G" horiz-adv-x="448" 
d="M408 331v-331h-53l-19 57q-26 -36 -55 -51.5t-70 -15.5q-46 0 -82 20.5t-56 57.5q-8 16 -13.5 33t-9 37.5t-5 46.5t-1.5 61v184q0 40 1.5 68t6 49t12 37t19.5 31q22 30 58.5 46t82.5 16q57 0 97.5 -24t61.5 -70q12 -24 17 -55.5t5 -77.5h-103q0 69 -18.5 99.5t-60.5 30.5
q-20 0 -36.5 -8.5t-24.5 -25.5q-5 -8 -7.5 -16.5t-4.5 -19t-2.5 -25t-0.5 -35.5v-204q0 -42 2.5 -66t8.5 -43q8 -23 26.5 -36.5t43.5 -13.5q41 0 59 31.5t18 100.5v27h-85v85h188z" />
    <glyph glyph-name="H" unicode="H" horiz-adv-x="454" 
d="M154 294v-294h-103v667h103v-278h147v278h103v-667h-103v294h-147z" />
    <glyph glyph-name="I" unicode="I" horiz-adv-x="205" 
d="M154 0h-103v667h103v-667z" />
    <glyph glyph-name="J" unicode="J" horiz-adv-x="259" 
d="M208 667v-504q0 -26 -1.5 -45.5t-5 -34t-9 -25.5t-13.5 -21q-30 -37 -104 -37h-62v97h24q38 0 53 16t15 58v496h103z" />
    <glyph glyph-name="K" unicode="K" horiz-adv-x="444" 
d="M154 391l149 276h111l-141 -242l161 -425h-113l-112 315l-55 -93v-222h-103v667h103v-276z" />
    <glyph glyph-name="L" unicode="L" horiz-adv-x="372" 
d="M154 95h205v-95h-308v667h103v-572z" />
    <glyph glyph-name="M" unicode="M" horiz-adv-x="587" 
d="M536 0h-98v491l-116 -491h-58l-115 491v-491h-98v667h151l92 -419l93 419h149v-667z" />
    <glyph glyph-name="N" unicode="N" horiz-adv-x="471" 
d="M421 0h-92l-180 444v-444h-98v667h104l168 -415v415h98v-667z" />
    <glyph glyph-name="O" unicode="O" horiz-adv-x="452" 
d="M408 212q0 -57 -9 -93t-29 -65q-46 -64 -144 -64t-144 64q-20 29 -29 65t-9 93v243q0 57 9 93t29 65q46 64 144 64t144 -64q20 -29 29 -65t9 -93v-243zM147 214q0 -20 0.5 -33.5t2 -24t4 -18t6.5 -15.5q9 -17 26.5 -26.5t39.5 -9.5t39.5 9.5t26.5 26.5q4 8 6.5 15.5
t4 17.5t2 24t0.5 34v239q0 20 -0.5 34t-2 24t-4 17.5t-6.5 15.5q-9 17 -26.5 26.5t-39.5 9.5t-39.5 -9.5t-26.5 -26.5q-8 -15 -10.5 -33t-2.5 -58v-239z" />
    <glyph glyph-name="P" unicode="P" horiz-adv-x="435" 
d="M154 0h-103v667h171q51 0 84 -10t56 -33q53 -50 53 -156q0 -105 -53 -155q-23 -23 -56 -33t-84 -10h-68v-270zM199 365q62 0 85.5 22.5t23.5 81.5q0 58 -23.5 80.5t-85.5 22.5h-45v-207h45z" />
    <glyph glyph-name="Q" unicode="Q" horiz-adv-x="452" 
d="M438 -49q-42 0 -75 14.5t-50 41.5q-23 -9 -44 -13t-45 -4q-47 0 -83 16.5t-59 47.5q-20 28 -29 64.5t-9 93.5v243q0 57 9 93t29 65q46 64 144 64t144 -64q20 -29 29 -65t9 -93v-243q0 -48 -5.5 -80t-19.5 -57q16 -25 55 -28v-96zM147 214q0 -20 0.5 -33.5t2 -24t4 -18
t6.5 -15.5q9 -17 26.5 -26.5t39.5 -9.5t39.5 9.5t26.5 26.5q4 8 6.5 15.5t4 17.5t2 24t0.5 34v239q0 20 -0.5 34t-2 24t-4 17.5t-6.5 15.5q-9 17 -26.5 26.5t-39.5 9.5t-39.5 -9.5t-26.5 -26.5q-8 -15 -10.5 -33t-2.5 -58v-239z" />
    <glyph glyph-name="R" unicode="R" horiz-adv-x="439" 
d="M154 0h-103v667h161q46 0 77 -9.5t55 -30.5q60 -51 60 -151q0 -127 -90 -173l98 -303h-108l-88 274h-62v-274zM192 369q33 0 50.5 4.5t29.5 16.5q25 25 25 81q0 55 -25 80q-12 12 -29.5 16.5t-50.5 4.5h-38v-203h38z" />
    <glyph glyph-name="S" unicode="S" horiz-adv-x="426" 
d="M302 481q-24 99 -88 99q-29 0 -48 -19.5t-19 -48.5q0 -37 28 -67l10.5 -12t13 -11.5l23 -18l41.5 -31.5l36 -29t26 -22.5l20 -19.5t17 -19q20 -25 31.5 -56.5t11.5 -65.5q0 -38 -13.5 -69t-37.5 -53.5t-57.5 -35t-74.5 -12.5q-171 0 -202 188l99 29q19 -120 103 -120
q34 0 55 21t21 55q0 16 -4.5 29.5t-16 28.5t-30.5 32t-48 40l-55 43t-31.5 26.5t-19 19t-16.5 20.5q-37 48 -37 111q0 36 13 66t36 52t55 34t70 12q144 0 187 -167z" />
    <glyph glyph-name="T" unicode="T" horiz-adv-x="375" 
d="M239 0h-103v572h-129v95h362v-95h-130v-572z" />
    <glyph glyph-name="U" unicode="U" horiz-adv-x="454" 
d="M404 667v-452q0 -63 -8.5 -100t-29.5 -65q-22 -29 -57.5 -44.5t-80.5 -15.5q-94 0 -139 60q-21 28 -29.5 65t-8.5 100v452h103v-469q0 -60 17 -85.5t56 -25.5q40 0 57 25.5t17 85.5v469h103z" />
    <glyph glyph-name="V" unicode="V" horiz-adv-x="433" 
d="M160 0l-143 667h107l100 -507l88 507h105l-129 -667h-128z" />
    <glyph glyph-name="W" unicode="W" horiz-adv-x="637" 
d="M408 0l-86 452l-81 -452h-96l-125 667h100l76 -430l80 430h89l88 -430l67 430h97l-113 -667h-96z" />
    <glyph glyph-name="X" unicode="X" horiz-adv-x="450" 
d="M436 0h-114l-102 243l-94 -243h-113l149 348l-143 319h114l89 -214l83 214h112l-137 -319z" />
    <glyph glyph-name="Y" unicode="Y" horiz-adv-x="440" 
d="M270 0h-103v260l-150 407h114l89 -282l92 282h112l-154 -407v-260z" />
    <glyph glyph-name="Z" unicode="Z" horiz-adv-x="389" 
d="M369 0h-349v97l233 475h-211v95h324v-95l-232 -477h235v-95z" />
    <glyph glyph-name="AE" unicode="&#xc6;" horiz-adv-x="635" 
d="M170 145l-55 -145h-111l254 667h357v-95h-199v-176h146v-95h-146v-206h199v-95h-302v145h-143zM313 539l-108 -299h108v299z" />
    <glyph glyph-name="OE" unicode="&#x152;" horiz-adv-x="619" 
d="M599 572h-200v-176h147v-95h-147v-206h200v-95h-362q-99 0 -146 51t-47 157v250q0 107 47 158t146 51h362v-95zM246 572q-55 0 -77 -32t-22 -110v-193q0 -78 22 -110t77 -32h50v477h-50z" />
    <glyph glyph-name="Oslash" unicode="&#xd8;" horiz-adv-x="452" 
d="M377 688l-20 -59q28 -30 39.5 -69.5t11.5 -104.5v-243q0 -57 -9 -93t-29 -65q-23 -31 -59.5 -47.5t-83.5 -16.5q-26 0 -46 4t-43 14l-10 -30h-53l21 60q-15 16 -25 33t-16 37.5t-8.5 46t-2.5 57.5v243q0 57 9 93t29 65q46 64 144 64q26 0 46.5 -4t41.5 -14l10 29h53z
M279 561q-22 20 -54 20q-21 0 -38.5 -10t-26.5 -27q-4 -8 -6.5 -15.5t-4 -17.5t-2 -24t-0.5 -34v-268zM173 107q21 -20 53 -20q22 0 39.5 9.5t26.5 26.5q4 8 6.5 15.5t4 17.5t2 24t0.5 34v267z" />
    <glyph glyph-name="Ccedilla" unicode="&#xc7;" horiz-adv-x="444" 
d="M302 450v17q0 55 -20 84t-58 29q-44 0 -61 -33q-5 -8 -8 -16.5t-5 -19.5t-2.5 -25.5t-0.5 -34.5v-222q0 -38 2.5 -60t8.5 -39q8 -20 26 -31.5t41 -11.5q58 0 73 69q3 12 4 27.5t2 50.5h104v-22q0 -110 -46 -166t-137 -56q-51 0 -89 19t-60 55q-9 15 -15.5 31t-10 36.5
t-5 47.5t-1.5 64v187q0 40 1.5 68t6 48.5t12 36.5t19.5 32q22 30 58 46t83 16q88 0 134.5 -54.5t46.5 -157.5v-15h-103zM266 -114l-22 -56h-47l17 56h-28v68h80v-68z" />
    <glyph glyph-name="Eth" unicode="&#xd0;" horiz-adv-x="454" 
d="M54 301h-23v95h23v271h163q99 0 146 -51t47 -158v-250q0 -106 -47 -157t-146 -51h-163v301zM207 95q56 0 78 32t22 110v193q0 78 -22 110t-78 32h-50v-176h77v-95h-77v-206h50z" />
    <glyph glyph-name="Lslash" horiz-adv-x="352" 
d="M206 503v-101l-73 -57v-250h205v-95h-308v279l-27 -20v101l27 20v287h103v-221z" />
    <glyph glyph-name="Thorn" unicode="&#xde;" horiz-adv-x="435" 
d="M154 0h-103v667h103v-104h68q51 0 84 -10t56 -33q53 -50 53 -155t-53 -155q-23 -23 -56 -33t-84 -10h-68v-167zM199 262q31 0 52 5t33.5 17t18 32t5.5 49q0 58 -23.5 80.5t-85.5 22.5h-45v-206h45z" />
    <glyph glyph-name="a" unicode="a" horiz-adv-x="396" 
d="M258 0q-8 22 -8 58q-34 -37 -58 -51t-54 -14q-48 0 -74.5 35t-26.5 97q0 48 19.5 80t66.5 60q8 5 18 10.5t24 12l34.5 15.5l50.5 22v26q0 38 -11.5 54.5t-37.5 16.5t-39 -16.5t-16 -54.5h-98q6 75 48.5 114t117.5 39q68 0 102 -38q8 -10 13 -19.5t8 -22t4.5 -29
t1.5 -39.5v-221q0 -28 0.5 -47.5t1.5 -34.5t3.5 -27l5.5 -26h-96zM250 256q-62 -33 -88.5 -61.5t-26.5 -63.5q0 -25 13.5 -40.5t33.5 -15.5q41 0 68 45v136z" />
    <glyph glyph-name="b" unicode="b" horiz-adv-x="387" 
d="M43 667h93v-219q31 29 57 42.5t53 13.5q55 0 80 -51q6 -13 9.5 -26.5t6 -30t3.5 -38t1 -50.5v-119q0 -57 -4.5 -88.5t-15.5 -56.5q-25 -51 -80 -51q-27 0 -53 13.5t-57 42.5v-49h-93v667zM136 100q19 -14 34 -19.5t31 -5.5q14 0 26 7t17 19q3 6 5 12.5t2.5 15.5t1 21.5
t0.5 32.5v131q0 19 -0.5 32t-1 22t-2.5 15.5t-5 12.5q-5 12 -17 19t-26 7q-16 0 -31 -5.5t-34 -19.5v-297z" />
    <glyph glyph-name="c" unicode="c" horiz-adv-x="377" 
d="M256 325v16q0 81 -60 81q-36 0 -49.5 -24.5t-13.5 -89.5v-120q0 -35 2.5 -54t9.5 -32q14 -27 51 -27q60 0 60 85v16h93v-18q0 -45 -8 -73t-27 -49q-41 -46 -118 -46q-42 0 -74 13t-51 39q-17 23 -24 53t-7 81v144q0 51 7 81.5t24 53.5q38 52 125 52q77 0 118 -45
q19 -20 27 -47.5t8 -72.5v-17h-93z" />
    <glyph glyph-name="d" unicode="d" horiz-adv-x="387" 
d="M250 0v49q-31 -29 -57 -42.5t-53 -13.5q-55 0 -80 51q-11 25 -15.5 56.5t-4.5 88.5v119q0 29 1 50.5t3.5 38t6 30t9.5 26.5q25 51 80 51q27 0 53 -13.5t57 -42.5v219h93v-667h-93zM250 397q-19 14 -34 19.5t-31 5.5q-14 0 -26 -7t-17 -19q-3 -6 -5 -12.5t-2.5 -15.5
t-1 -22t-0.5 -32v-131q0 -20 0.5 -32.5t1 -21.5t2.5 -15.5t5 -12.5q5 -12 17 -19t26 -7q16 0 31 5.5t34 19.5v297z" />
    <glyph glyph-name="e" unicode="e" horiz-adv-x="389" 
d="M133 233v-44q0 -65 13.5 -89.5t49.5 -24.5q45 0 56 44q2 8 3 17.5t1 35.5h93q0 -27 -1 -45t-3.5 -31.5t-6.5 -23t-10 -19.5q-38 -63 -132 -63q-87 0 -125 52q-17 23 -24 53.5t-7 81.5v148q0 30 2 51.5t6.5 38t12 29t19.5 23.5q42 40 113 40q77 0 117 -46q11 -12 18 -25.5
t11.5 -30.5t6.5 -39t2 -51v-82h-215zM255 342q0 45 -14.5 64t-46.5 19t-46.5 -19t-14.5 -64v-27h122v27z" />
    <glyph glyph-name="f" unicode="f" horiz-adv-x="245" 
d="M244 414h-78v-414h-93v414h-67v83h67v47q0 45 6.5 67.5t24.5 37.5q29 25 85 25q17 0 30 -1.5t33 -5.5v-87q-20 6 -26 7.5t-15 1.5q-26 0 -35.5 -14t-9.5 -51v-27h78v-83z" />
    <glyph glyph-name="g" unicode="g" horiz-adv-x="404" 
d="M398 403q-8 8 -15 10.5t-17 2.5q-22 0 -37 -19q5 -20 7.5 -37.5t2.5 -43.5q0 -95 -38 -143.5t-112 -48.5q-9 0 -16 0.5t-19 2.5q-22 -11 -22 -29q0 -20 29 -23q6 -1 11 -1.5t12 -1t17.5 -1t26.5 -1.5q47 -3 72 -8.5t46 -18.5q23 -14 35 -39t12 -57q0 -64 -48 -94
t-150 -30q-172 0 -172 90q0 29 18 48.5t60 33.5q-32 13 -45 27.5t-13 37.5q0 29 17 46t60 31q-44 23 -63.5 65t-19.5 112q0 94 39 142t114 48q42 0 70 -14.5t51 -48.5q9 34 29 48.5t58 12.5v-99zM132 286q0 -80 56 -80t56 80v55q0 81 -56 81t-56 -81v-55zM143 -13
q-25 -22 -25 -44q0 -23 21 -32t70 -9q95 0 95 42q0 28 -40 34q-5 1 -9.5 1.5t-12 0.5t-19.5 0.5t-31 1.5l-21 2t-28 3z" />
    <glyph glyph-name="h" unicode="h" horiz-adv-x="385" 
d="M136 433q32 38 61.5 54.5t62.5 16.5q81 0 81 -116v-388h-93v364q0 32 -7.5 45t-27.5 13q-40 0 -77 -50v-372h-93v667h93v-234z" />
    <glyph glyph-name="i" unicode="i" horiz-adv-x="180" 
d="M136 0h-93v497h93v-497zM136 570h-93v97h93v-97z" />
    <glyph glyph-name="j" unicode="j" horiz-adv-x="193" 
d="M150 497v-504q0 -25 -1.5 -43t-4.5 -31.5t-8.5 -24t-13.5 -19.5q-36 -42 -106 -42q-11 0 -19.5 1t-20.5 4v90q10 -2 15.5 -2.5t13.5 -0.5q29 0 40.5 19.5t11.5 68.5v484h93zM150 570h-93v97h93v-97z" />
    <glyph glyph-name="k" unicode="k" horiz-adv-x="374" 
d="M136 298l112 199h106l-101 -162l110 -335h-104l-70 232l-53 -84v-148h-93v667h93v-369z" />
    <glyph glyph-name="l" unicode="l" horiz-adv-x="180" 
d="M136 0h-93v667h93v-667z" />
    <glyph glyph-name="m" unicode="m" horiz-adv-x="589" 
d="M136 433q32 38 61.5 54.5t62.5 16.5q64 0 78 -71q33 38 63 54.5t63 16.5q82 0 82 -116v-388h-93v364q0 32 -7.5 45t-27.5 13q-40 0 -77 -50v-372h-93v364q0 32 -7.5 45t-27.5 13q-40 0 -77 -50v-372h-93v497h93v-64z" />
    <glyph glyph-name="n" unicode="n" horiz-adv-x="385" 
d="M136 433q32 38 61.5 54.5t62.5 16.5q81 0 81 -116v-388h-93v364q0 32 -7.5 45t-27.5 13q-40 0 -77 -50v-372h-93v497h93v-64z" />
    <glyph glyph-name="o" unicode="o" horiz-adv-x="385" 
d="M345 172q0 -29 -2 -51t-6.5 -38.5t-12 -29t-18.5 -23.5q-42 -40 -113 -40q-72 0 -114 40q-11 11 -18.5 23.5t-12 29t-6.5 38.5t-2 51v153q0 29 2 50.5t6.5 38t12 29.5t18.5 24q42 40 114 40q71 0 113 -40q11 -11 18.5 -24t12 -29.5t6.5 -38t2 -50.5v-153zM133 166
q0 -48 14 -69.5t45 -21.5q32 0 46 21.5t14 69.5v165q0 48 -14 69.5t-46 21.5q-31 0 -45 -21.5t-14 -69.5v-165z" />
    <glyph glyph-name="p" unicode="p" horiz-adv-x="387" 
d="M136 497v-49q31 29 57 42.5t53 13.5q55 0 80 -51q6 -13 9.5 -26.5t6 -30.5t3.5 -38.5t1 -49.5v-119q0 -29 -1 -50.5t-3.5 -38t-6 -30t-9.5 -26.5q-25 -51 -80 -51q-27 0 -53 13.5t-57 42.5v-219h-93v667h93zM136 100q19 -14 34 -19.5t31 -5.5q14 0 26 7t17 19q3 6 5 12.5
t2.5 15.5t1 21.5t0.5 32.5v131q0 19 -0.5 32t-1 22t-2.5 15.5t-5 12.5q-5 12 -17 19t-26 7q-30 0 -65 -25v-297z" />
    <glyph glyph-name="q" unicode="q" horiz-adv-x="387" 
d="M343 -170h-93v219q-31 -29 -57 -42.5t-53 -13.5q-55 0 -80 51q-6 13 -9.5 26.5t-6 30t-3.5 38t-1 50.5v119q0 28 1 49.5t3.5 38.5t6 30.5t9.5 26.5q25 51 80 51q27 0 53 -13.5t57 -42.5v49h93v-667zM250 397q-35 25 -65 25q-14 0 -26 -7t-17 -19q-3 -6 -5 -12.5
t-2.5 -15.5t-1 -22t-0.5 -32v-131q0 -20 0.5 -32.5t1 -21.5t2.5 -15.5t5 -12.5q5 -12 17 -19t26 -7q16 0 31 5.5t34 19.5v297z" />
    <glyph glyph-name="r" unicode="r" horiz-adv-x="255" 
d="M136 497v-86q19 50 47 71.5t72 21.5v-108q-14 5 -24 7t-21 2q-38 0 -58 -26q-10 -13 -13 -29t-3 -51v-299h-93v497h93z" />
    <glyph glyph-name="s" unicode="s" horiz-adv-x="362" 
d="M249 350q-15 39 -32.5 55.5t-44.5 16.5q-22 0 -35.5 -12t-13.5 -32q0 -10 3.5 -18.5t12.5 -17t25.5 -19t42.5 -24.5q42 -23 64 -37.5t37 -30.5q17 -17 26 -41.5t9 -52.5q0 -66 -42 -106.5t-111 -40.5q-64 0 -105 34t-65 106l87 30q15 -46 34.5 -65.5t48.5 -19.5
q23 0 38 14t15 36q0 21 -14.5 37t-55.5 38q-26 14 -43 24t-29 18.5t-20.5 15.5t-16.5 16q-36 38 -36 94q0 30 11 55.5t30 44t45.5 29t58.5 10.5q60 0 99 -29t62 -91z" />
    <glyph glyph-name="t" unicode="t" horiz-adv-x="273" 
d="M261 414h-85v-265q0 -38 13.5 -54.5t44.5 -16.5q9 0 16.5 1t19.5 5v-84q-20 -4 -33.5 -5.5t-30.5 -1.5q-70 0 -100 37q-14 16 -18.5 39t-4.5 70v275h-72v83h72v136h93v-136h85v-83z" />
    <glyph glyph-name="u" unicode="u" horiz-adv-x="385" 
d="M341 0h-93v64q-32 -38 -61.5 -54.5t-62.5 -16.5q-81 0 -81 116v388h93v-364q0 -32 7.5 -45t27.5 -13t39.5 13t37.5 37v372h93v-497z" />
    <glyph glyph-name="v" unicode="v" horiz-adv-x="351" 
d="M132 0l-122 497h99l71 -316l63 316h98l-111 -497h-98z" />
    <glyph glyph-name="w" unicode="w" horiz-adv-x="540" 
d="M334 0l-64 305l-63 -305h-88l-106 497h95l60 -310l61 310h85l63 -310l56 310h94l-105 -497h-88z" />
    <glyph glyph-name="x" unicode="x" horiz-adv-x="368" 
d="M355 0h-102l-71 176l-70 -176h-99l115 260l-107 237h101l61 -153l58 153h100l-103 -237z" />
    <glyph glyph-name="y" unicode="y" horiz-adv-x="354" 
d="M344 497l-108 -476q-13 -61 -28 -99.5t-38 -60.5t-58 -30t-87 -8v96q5 -1 10 -1h7q38 0 61 22.5t23 59.5q0 14 -7 43l-109 454h98l73 -339l67 339h96z" />
    <glyph glyph-name="z" unicode="z" horiz-adv-x="341" 
d="M318 0h-295v93l188 314h-172v90h279v-93l-188 -314h188v-90z" />
    <glyph glyph-name="ae" unicode="&#xe6;" horiz-adv-x="599" 
d="M343 233v-44q0 -65 13.5 -89.5t49.5 -24.5q45 0 56 44q2 8 3 17.5t1 35.5h93q0 -26 -1 -44t-3.5 -31t-6.5 -23t-10 -20q-38 -61 -132 -61q-91 0 -130 57q-36 -32 -64.5 -44.5t-62.5 -12.5q-54 0 -83 35t-29 98q0 48 19.5 79.5t66.5 59.5l19 10.5t24.5 12.5l34.5 16l49 21
v26q0 38 -11.5 54.5t-37.5 16.5t-39 -16.5t-16 -54.5h-98q6 75 48 114t117 39q59 0 91 -26q39 26 99 26q78 0 117 -45q21 -24 29.5 -55.5t8.5 -88.5v-82h-215zM250 256q-63 -33 -89 -61.5t-26 -63.5q0 -25 13.5 -40.5t33.5 -15.5q40 0 68 45v136zM465 342q0 45 -14.5 64.5
t-46.5 19.5t-46.5 -19.5t-14.5 -64.5v-27h122v27z" />
    <glyph glyph-name="oe" unicode="&#x153;" horiz-adv-x="601" 
d="M345 233v-34q0 -36 1.5 -55t5.5 -31q14 -38 56 -38q44 0 55 44q2 8 3 18t1 35h94q0 -27 -1 -45t-3.5 -31.5t-6.5 -23t-10 -19.5q-19 -31 -53 -47t-79 -16q-68 0 -109 34q-22 -17 -47.5 -25.5t-58.5 -8.5q-72 0 -114 40q-11 11 -18.5 23.5t-12 29t-6.5 38.5t-2 51v153
q0 29 2 50.5t6.5 38t12 29.5t18.5 24q42 40 113 40q67 0 107 -34q41 34 106 34q76 0 117 -46q21 -23 29.5 -55.5t8.5 -90.5v-82h-215zM133 166q0 -48 14 -69.5t45 -21.5q32 0 46 21.5t14 69.5v165q0 48 -14 69.5t-46 21.5q-31 0 -45 -21.5t-14 -69.5v-165zM466 342
q0 45 -14 64t-46 19t-46.5 -19t-14.5 -64v-27h121v27z" />
    <glyph glyph-name="oslash" unicode="&#xf8;" horiz-adv-x="385" 
d="M311 537l-19 -58q16 -13 26 -26t16 -30.5t8.5 -41t2.5 -56.5v-153q0 -29 -2 -51t-6.5 -38.5t-12 -29t-18.5 -23.5q-42 -40 -113 -40q-18 0 -32 2t-30 7l-13 -39h-47l20 60q-15 12 -25 25.5t-15.5 30.5t-8 40.5t-2.5 55.5v153q0 29 2 50.5t6.5 38t12 29t18.5 24.5
q42 40 115 40q17 0 30.5 -2t27.5 -7l13 39h46zM223 414q-8 5 -14.5 6.5t-15.5 1.5q-32 0 -46 -21.5t-14 -69.5v-185zM160 85q8 -6 15 -8t18 -2q31 0 45 21.5t14 69.5v193z" />
    <glyph glyph-name="germandbls" unicode="&#xdf;" horiz-adv-x="386" 
d="M43 0v491q0 52 7.5 82.5t26.5 53.5q38 47 105 47q59 0 95 -36t36 -94q0 -30 -11 -51.5t-37 -38.5q24 -9 39.5 -22t24.5 -36t12.5 -58.5t3.5 -87.5q0 -85 -7.5 -132t-26.5 -74q-17 -25 -39.5 -35.5t-57.5 -10.5h-14t-15 2v91q5 -1 12 -1q15 0 24.5 7t15.5 24t8 47t2 77
q0 51 -3 82t-12 48.5t-25 24t-42 7.5v90q55 0 55 48q0 20 -11 32t-29 12q-44 0 -44 -76v-513h-93z" />
    <glyph glyph-name="dotlessi" unicode="&#xd;" horiz-adv-x="180" 
d="M136 0h-93v497h93v-497z" />
    <glyph glyph-name="fi" horiz-adv-x="415" 
d="M73 414h-67v83h67v47q0 45 6.5 67.5t24.5 37.5q16 14 37 19.5t54 5.5q21 0 43 -1.5t60 -5.5v-87q-56 9 -84 9t-38 -13.5t-10 -51.5v-27h205v-497h-93v414h-112v-414h-93v414z" />
    <glyph glyph-name="fl" horiz-adv-x="415" 
d="M237 414h-71v-414h-93v414h-67v83h67v47q0 45 7 68t24 37q31 25 80 25q12 0 27.5 -1t32.5 -3q22 -3 34 -3h93v-667h-93v581q-20 4 -37 6t-31 2q-25 0 -34.5 -14t-9.5 -51v-27h71v-83z" />
    <glyph glyph-name="ccedilla" unicode="&#xe7;" horiz-adv-x="377" 
d="M256 325v16q0 81 -60 81q-36 0 -49.5 -24.5t-13.5 -89.5v-120q0 -35 2.5 -54t9.5 -32q14 -27 51 -27q60 0 60 85v16h93v-18q0 -45 -8 -73t-27 -49q-41 -46 -118 -46q-42 0 -74 13t-51 39q-17 23 -24 53t-7 81v144q0 51 7 81.5t24 53.5q38 52 125 52q77 0 118 -45
q19 -20 27 -47.5t8 -72.5v-17h-93zM235 -114l-22 -56h-47l17 56h-28v68h80v-68z" />
    <glyph glyph-name="lslash" horiz-adv-x="218" 
d="M203 484v-95l-45 -34v-355h-93v293l-45 -34v94l45 35v279h93v-218z" />
    <glyph glyph-name="eth" unicode="&#xf0;" horiz-adv-x="385" 
d="M286 701l29 -33l-51 -46q42 -48 61.5 -105t19.5 -132v-213q0 -29 -2 -51t-6.5 -38.5t-12 -29t-18.5 -23.5q-42 -40 -113 -40q-72 0 -114 40q-11 11 -18.5 23.5t-12 29t-6.5 38.5t-2 51v136q0 28 1 49t4 37.5t7.5 30t10.5 25.5q25 50 87 50q49 0 102 -41q-7 35 -16.5 58.5
t-28.5 53.5l-48 -42l-29 32l49 43l-16 16l-13 13l46 48l22 -15t15 -13zM133 166q0 -48 14 -69.5t45 -21.5q32 0 46 21.5t14 69.5v165q0 48 -14 69.5t-46 21.5q-31 0 -45 -21.5t-14 -69.5v-165z" />
    <glyph glyph-name="thorn" unicode="&#xfe;" horiz-adv-x="387" 
d="M136 667v-219q31 29 57 42.5t53 13.5q55 0 80 -51q6 -13 9.5 -26.5t6 -30.5t3.5 -38.5t1 -49.5v-119q0 -29 -1 -50.5t-3.5 -38t-6 -30t-9.5 -26.5q-25 -51 -80 -51q-27 0 -53 13.5t-57 42.5v-219h-93v837h93zM136 100q19 -14 34 -19.5t31 -5.5q14 0 26 7t17 19
q3 6 5 12.5t2.5 15.5t1 21.5t0.5 32.5v131q0 19 -0.5 32t-1 22t-2.5 15.5t-5 12.5q-5 12 -17 19t-26 7q-30 0 -65 -25v-297z" />
    <glyph glyph-name="one" unicode="1" 
d="M275 0h-97v510h-96v61q20 9 40.5 20.5t38.5 24.5t33 26t24 25h57v-667z" />
    <glyph glyph-name="two" unicode="2" 
d="M358 0h-325v90l126.5 169t72 107.5t32 72t7.5 62.5q0 84 -64 84q-44 0 -61 -41q-5 -11 -7 -26t-2 -45h-97q0 56 6.5 86t23.5 53q23 32 59 48.5t80 16.5q76 0 119 -46.5t43 -129.5q0 -42 -10 -79t-32 -75l-20.5 -33.5t-22.5 -33.5l-38 -52.5l-68 -91.5q-9 -11 -17.5 -23
l-16.5 -23h212v-90z" />
    <glyph glyph-name="three" unicode="3" 
d="M177 397q32 1 45.5 5.5t23.5 17.5q18 24 18 70q0 95 -61 95q-29 0 -45.5 -20.5t-17.5 -57.5v-10h-97v9q0 78 44.5 124.5t118.5 46.5q75 0 115 -48t40 -137q0 -60 -18 -91.5t-62 -47.5q50 -15 70.5 -50t20.5 -107q0 -53 -11 -89t-34 -63q-47 -54 -126 -54q-77 0 -122 49
t-45 132v19h100v-14q0 -45 18 -69.5t50 -24.5q70 0 70 112q0 60 -21 84t-74 26v93z" />
    <glyph glyph-name="four" unicode="4" 
d="M14 169v104l197 394h106v-408h75v-90h-75v-169h-97v169h-206zM220 504l-116 -245h116v245z" />
    <glyph glyph-name="five" unicode="5" 
d="M346 577h-207l-3 -152q25 22 48.5 31.5t52.5 9.5q35 0 61.5 -14.5t43.5 -40.5q8 -14 13.5 -29.5t9 -35.5t5 -46t1.5 -61q0 -38 -1.5 -66t-5.5 -49.5t-11 -38.5t-17 -33q-39 -62 -133 -62q-76 0 -117 45t-41 130v9t1 14h96v-17q0 -89 62 -89q46 0 58 42q3 9 4.5 18t2.5 22
t1.5 30t0.5 42q0 83 -15 115.5t-52 32.5q-22 0 -36.5 -11.5t-31.5 -41.5h-89l7 336h292v-90z" />
    <glyph glyph-name="six" unicode="6" 
d="M269 494v15q0 76 -61 76q-20 0 -34.5 -8t-21.5 -23q-4 -8 -7 -17.5t-4.5 -22t-2 -29.5t-0.5 -41v-83q22 29 45 41t56 12q135 0 135 -199q0 -225 -167 -225q-81 0 -123 56q-23 30 -33 72t-10 106v238q0 57 9.5 93t30.5 64q22 28 54.5 43t72.5 15q72 0 115 -45t43 -121v-17
h-97zM138 190q0 -108 68 -108q37 0 52.5 28.5t15.5 94.5q0 63 -15 90t-51 27q-21 0 -36.5 -9t-33.5 -32v-91z" />
    <glyph glyph-name="seven" unicode="7" 
d="M358 596l-149 -596h-101l147 577h-217v90h320v-71z" />
    <glyph glyph-name="eight" unicode="8" 
d="M293 351q45 -18 63 -55t18 -106q0 -53 -10.5 -88.5t-33.5 -61.5q-45 -50 -125 -50t-125 50q-23 26 -33.5 61.5t-10.5 88.5q0 69 18 106t63 55q-41 20 -57 52.5t-16 94.5q0 88 41.5 133.5t119.5 45.5t119.5 -45.5t41.5 -133.5q0 -62 -16.5 -94.5t-56.5 -52.5zM204 585
q-63 0 -63 -94t64 -94t64 93q0 95 -65 95zM204 302q-68 0 -68 -110t69 -110t69 109q0 57 -17 84t-53 27z" />
    <glyph glyph-name="nine" unicode="9" 
d="M142 173v-15q0 -76 61 -76q20 0 34.5 8t21.5 23q8 16 11 39.5t3 70.5v83q-22 -29 -45 -41t-56 -12q-135 0 -135 199q0 225 167 225q81 0 123 -56q23 -30 33 -72t10 -106v-238q0 -57 -9.5 -93t-30.5 -64q-22 -28 -54.5 -43t-72.5 -15q-72 0 -115 45t-43 121v17h97z
M273 477q0 108 -68 108q-37 0 -52.5 -28.5t-15.5 -94.5q0 -63 15 -90t51 -27q21 0 36.5 9t33.5 32v91z" />
    <glyph glyph-name="zero" unicode="0" 
d="M373 212q0 -57 -8 -93t-27 -65q-21 -31 -55 -47.5t-77 -16.5q-44 0 -78 16.5t-55 47.5q-19 29 -27 65t-8 93v243q0 57 8 93t27 65q21 31 55 47.5t78 16.5q43 0 77 -16.5t55 -47.5q19 -29 27 -65t8 -93v-243zM135 191q0 -17 0.5 -29t2 -20.5t3.5 -15t6 -13.5
q17 -31 59 -31q41 0 58 31q8 14 10 28.5t2 49.5v285q0 35 -2 49.5t-10 28.5q-17 31 -58 31q-42 0 -59 -31q-8 -14 -10 -28.5t-2 -49.5v-285z" />
    <glyph glyph-name="sterling" unicode="&#xa3;" 
d="M305 292h-96q9 -25 12.5 -44t3.5 -40q0 -26 -7 -46t-24 -45q19 -7 31 -11t18.5 -6.5t10.5 -3t9 -0.5q20 0 32 21t12 58h88q0 -85 -30.5 -133.5t-82.5 -48.5q-10 0 -20 1.5t-21.5 5t-26 10l-34.5 15.5q-17 8 -24.5 10.5t-15.5 2.5q-30 0 -65 -48l-63 64q40 73 96 79
q14 20 19.5 36t5.5 36t-5.5 38.5t-19.5 48.5h-85v61h63q-13 36 -20.5 59t-12 40t-6 30.5t-1.5 28.5q0 77 44.5 121.5t120.5 44.5q51 0 89 -22t57 -64q9 -20 13 -44.5t4 -60.5h-96q-2 53 -17 76t-50 23q-30 0 -48 -19t-18 -51q0 -13 1.5 -24.5t5.5 -27t11.5 -37.5l19.5 -55
l6 -18h116v-61z" />
    <glyph glyph-name="dollar" unicode="$" 
d="M230 737v-62q77 -9 135 -74l-69 -68q-20 28 -41.5 40t-48.5 12q-34 0 -53.5 -20.5t-19.5 -55.5q0 -40 26 -68q6 -6 11 -10.5t13 -10.5l21 -15l34 -24q40 -28 67 -52.5t43 -49.5t23 -52.5t7 -60.5q0 -75 -38.5 -120.5t-109.5 -54.5v-76h-53v76q-87 11 -150 95l69 65
q16 -20 29.5 -33.5t26.5 -21.5t26.5 -11.5t29.5 -3.5q32 0 51 21.5t19 58.5q0 41 -27 73q-6 7 -12 13t-15 13t-23 17l-36 26q-37 26 -61.5 49t-39.5 46.5t-21.5 48.5t-6.5 55q0 69 38 116t103 57v62h53z" />
    <glyph glyph-name="cent" unicode="&#xa2;" 
d="M232 690v-100q127 -13 127 -160v-20h-94q1 5 1 10v7q0 80 -60 80q-37 0 -51 -27q-7 -13 -9.5 -32t-2.5 -55v-120q0 -36 2.5 -54.5t9.5 -31.5t20 -20t30 -7q61 0 61 83v7.5t-1 10.5h94v-21q0 -77 -30 -115.5t-97 -47.5v-108h-53v108q-36 5 -60.5 17.5t-39.5 34t-22 54
t-7 78.5v144q0 69 15 106t50 59q25 16 64 20v100h53z" />
    <glyph glyph-name="florin" unicode="&#x192;" 
d="M337 414h-90l-114 -584h-93l113 584h-80l12 61h80l27 136q8 44 19.5 66.5t32.5 37.5q34 25 90 25q17 0 29.5 -1.5t30.5 -4.5l-17 -87q-14 5 -22 6.5t-17 1.5q-25 0 -37 -14t-20 -50l-22 -116h90z" />
    <glyph glyph-name="yen" unicode="&#xa5;" 
d="M252 0h-98v285h-99v61h77l-114 321h102l84 -283l88 283h99l-117 -321h76v-61h-98v-285z" />
    <glyph glyph-name="onesuperior" unicode="&#xb9;" horiz-adv-x="277" 
d="M187 267h-69v301h-62v42q28 11 53 27t36 30h42v-400z" />
    <glyph glyph-name="twosuperior" unicode="&#xb2;" horiz-adv-x="277" 
d="M240 266h-215v58l80.5 98t46.5 63.5t21 43t5 36.5q0 47 -38 47q-42 0 -42 -53v-14h-69v19q0 51 29.5 80t83.5 29q51 0 79 -28.5t28 -79.5q0 -48 -28 -92q-8 -12 -13 -20.5t-14 -20l-25 -31l-44 -53.5q-5 -6 -9 -11.5t-9 -10.5h133v-60z" />
    <glyph glyph-name="threesuperior" unicode="&#xb3;" horiz-adv-x="277" 
d="M117 508q35 1 46.5 11t11.5 40q0 53 -38 53q-17 0 -27.5 -11.5t-10.5 -30.5v-4.5t1 -5.5h-69v11q0 46 30 74t78 28q50 0 76.5 -29.5t26.5 -83.5q0 -33 -10.5 -52t-34.5 -30q27 -8 39.5 -30t12.5 -63q0 -60 -29.5 -92.5t-83.5 -32.5q-31 0 -56 13t-39 36q-8 14 -11.5 31
t-3.5 45h70l1 -11q3 -53 40 -53q41 0 41 63q0 35 -13 48t-48 14v62z" />
    <glyph glyph-name="period" unicode="." horiz-adv-x="173" 
d="M135 0h-97v107h97v-107z" />
    <glyph glyph-name="colon" unicode=":" horiz-adv-x="173" 
d="M135 0h-97v107h97v-107zM135 390h-97v107h97v-107z" />
    <glyph glyph-name="periodcentered" unicode="&#xb7;" horiz-adv-x="173" 
d="M135 200h-97v107h97v-107z" />
    <glyph glyph-name="periodcentered" unicode="&#x2219;" horiz-adv-x="173" 
d="M135 200h-97v107h97v-107z" />
    <glyph glyph-name="periodcentered" horiz-adv-x="173" 
d="M135 200h-97v107h97v-107z" />
    <glyph glyph-name="ellipsis" unicode="&#x2026;" horiz-adv-x="520" 
d="M135 0h-97v107h97v-107zM308 0h-97v107h97v-107zM481 0h-97v107h97v-107z" />
    <glyph glyph-name="comma" unicode="," horiz-adv-x="173" 
d="M135 0l-59 -138h-38l44 138h-44v107h97v-107z" />
    <glyph glyph-name="semicolon" unicode=";" horiz-adv-x="173" 
d="M135 390h-97v107h97v-107zM135 0l-59 -138h-38l44 138h-44v107h97v-107z" />
    <glyph glyph-name="quoteleft" unicode="&#x2018;" horiz-adv-x="177" 
d="M40 529l59 138h38l-44 -138h44v-107h-97v107z" />
    <glyph glyph-name="quotedblright" unicode="&#x201d;" horiz-adv-x="323" 
d="M137 560l-59 -138h-38l44 138h-44v107h97v-107zM283 560l-59 -138h-38l44 138h-44v107h97v-107z" />
    <glyph glyph-name="quotedblleft" unicode="&#x201c;" horiz-adv-x="323" 
d="M186 529l59 138h38l-44 -138h44v-107h-97v107zM40 529l59 138h38l-44 -138h44v-107h-97v107z" />
    <glyph glyph-name="quotedblbase" unicode="&#x201e;" horiz-adv-x="323" 
d="M137 0l-59 -138h-38l44 138h-44v107h97v-107zM283 0l-59 -138h-38l44 138h-44v107h97v-107z" />
    <glyph glyph-name="exclam" unicode="!" horiz-adv-x="217" 
d="M77 201l-24 466h110l-24 -466h-62zM157 0h-97v107h97v-107z" />
    <glyph glyph-name="exclamdown" unicode="&#xa1;" horiz-adv-x="217" 
d="M139 295l24 -465h-110l24 465h62zM60 497h97v-107h-97v107z" />
    <glyph glyph-name="question" unicode="?" horiz-adv-x="355" 
d="M132 203q-1 12 -1 21v14q0 34 3 60.5t10.5 53t20.5 54.5t34 65q16 29 21.5 44t5.5 31q0 20 -11.5 31.5t-31.5 11.5q-23 0 -39 -18.5t-31 -61.5l-93 27q23 72 62 105t105 33q63 0 102 -35.5t39 -94.5q0 -14 -2.5 -27t-8 -27t-15 -30.5t-24.5 -37.5q-20 -30 -32 -51.5
t-19 -41.5t-9 -41.5t-2 -51.5v-33h-84zM224 0h-97v107h97v-107z" />
    <glyph glyph-name="questiondown" unicode="&#xbf;" horiz-adv-x="355" 
d="M224 294v-31q0 -36 -3 -63.5t-10.5 -53.5t-20.5 -54.5t-34 -65.5q-16 -29 -21.5 -44t-5.5 -31q0 -20 11.5 -31.5t31.5 -11.5q23 0 39.5 18.5t30.5 61.5l93 -27q-22 -72 -61.5 -105t-105.5 -33q-63 0 -102 35.5t-39 94.5q0 14 2.5 27t8 27t15 30.5t24.5 37.5
q22 33 34.5 55.5t18.5 44.5t7.5 49t1.5 70h85zM131 497h97v-107h-97v107z" />
    <glyph glyph-name="guillemotright" unicode="&#xbb;" horiz-adv-x="309" 
d="M136 322v-144l-103 -85v120l38 37l-38 37v120zM276 322v-144l-103 -85v120l38 37l-38 37v120z" />
    <glyph glyph-name="guillemotleft" unicode="&#xab;" horiz-adv-x="309" 
d="M173 178v144l103 85v-120l-38 -37l38 -37v-120zM33 178v144l103 85v-120l-38 -37l38 -37v-120z" />
    <glyph glyph-name="guilsinglright" unicode="&#x203a;" horiz-adv-x="169" 
d="M136 322v-144l-103 -85v120l38 37l-38 37v120z" />
    <glyph glyph-name="guilsinglleft" unicode="&#x2039;" horiz-adv-x="169" 
d="M33 178v144l103 85v-120l-38 -37l38 -37v-120z" />
    <glyph glyph-name="slash" unicode="/" horiz-adv-x="371" 
d="M348 667l-247 -734h-84l247 734h84z" />
    <glyph glyph-name="hyphen" unicode="-" horiz-adv-x="143" 
d="M143 212h-143v83h143v-83z" />
    <glyph glyph-name="sfthyphen" horiz-adv-x="143" 
d="M143 212h-143v83h143v-83z" />
    <glyph glyph-name="endash" unicode="&#x2013;" 
d="M373 212h-335v83h335v-83z" />
    <glyph glyph-name="emdash" unicode="&#x2014;" horiz-adv-x="503" 
d="M503 212h-503v83h503v-83z" />
    <glyph glyph-name="parenleft" unicode="(" horiz-adv-x="262" 
d="M234 668q-54 -84 -82 -178.5t-28 -191.5t28 -191.5t82 -178.5l-59 -40q-69 94 -106.5 199.5t-37.5 210.5t37.5 210.5t106.5 199.5z" />
    <glyph glyph-name="parenright" unicode=")" horiz-adv-x="262" 
d="M28 -72q54 85 82 179t28 191t-28 191t-82 179l58 40q70 -93 107.5 -199t37.5 -211t-37.5 -211t-107.5 -199z" />
    <glyph glyph-name="bracketleft" unicode="[" horiz-adv-x="262" 
d="M222 580h-78v-588h78v-87h-173v762h173v-87z" />
    <glyph glyph-name="bracketright" unicode="]" horiz-adv-x="262" 
d="M39 -8h79v588h-79v87h174v-762h-174v87z" />
    <glyph glyph-name="ampersand" unicode="&#x26;" horiz-adv-x="469" 
d="M427 298q-6 -93 -53 -166q10 -14 27.5 -25t40.5 -17v-100q-32 2 -65 19.5t-61 46.5q-35 -35 -64.5 -49t-66.5 -14q-32 0 -59.5 12.5t-48 35t-32.5 52t-12 64.5q0 46 20.5 90.5t68.5 100.5q-24 50 -34 86.5t-10 74.5q0 36 10 66.5t28.5 52.5t44 34t56.5 12q27 0 49.5 -10
t39 -28.5t26 -43.5t9.5 -55q0 -58 -40 -115q-6 -9 -10.5 -15t-11.5 -14.5l-17 -21.5l-28 -35q6 -16 15.5 -34t20 -36t21 -33.5t19.5 -26.5q12 23 18 45.5t9 57.5zM191 423q57 66 57 130q0 26 -10 40t-29 14q-20 0 -32 -18t-12 -50q0 -55 26 -116zM167 259q-17 -26 -24.5 -46
t-7.5 -43q0 -32 17.5 -55.5t42.5 -23.5q32 0 62 34q-26 28 -49.5 62t-40.5 72z" />
    <glyph glyph-name="section" unicode="&#xa7;" 
d="M246 517v22q0 55 -40 55q-14 0 -23.5 -8.5t-9.5 -21.5q0 -9 4 -16.5t21 -24.5l140 -161q39 -43 39 -93q0 -84 -87 -118l11 -12q29 -37 29 -81q0 -52 -35 -83.5t-93 -31.5q-63 0 -99 35t-36 97v9t2 12h92l-1.5 -10.5t-0.5 -7.5q0 -23 12 -36.5t32 -13.5q14 0 23 9t9 24
q0 16 -17 36l-119 132q-20 22 -32.5 39t-20 30.5t-10.5 25.5t-3 26q0 75 100 109l-10 13q-14 16 -22.5 28t-13.5 22.5t-7 21t-2 22.5q0 49 36 80t93 31q60 0 96 -35t36 -93v-14.5t-2 -17.5h-91zM173 409q-24 -11 -34.5 -23t-10.5 -29q0 -21 20 -44l96 -106q38 17 38 55
q0 14 -6 26t-21 29z" />
    <glyph glyph-name="dagger" unicode="&#x2020;" 
d="M252 502h126v-83h-126v-419h-93v419h-126v83h126v165h93v-165z" />
    <glyph glyph-name="daggerdbl" unicode="&#x2021;" 
d="M252 502h126v-83h-126v-171h126v-83h-126v-165h-93v165h-126v83h126v171h-126v83h126v165h93v-165z" />
    <glyph glyph-name="asterisk" unicode="*" horiz-adv-x="306" 
d="M37 556l23 69l63 -26l-6 68h73l-6 -68l63 26l23 -69l-66 -16l44 -51l-59 -44l-35 59l-36 -59l-59 44l44 51z" />
    <glyph glyph-name="quotesingle" unicode="'" horiz-adv-x="197" 
d="M59 400l-17 267h112l-17 -267h-78z" />
    <glyph glyph-name="quotedbl" unicode="&#x22;" horiz-adv-x="362" 
d="M59 400l-17 267h109l-17 -267h-75zM227 400l-17 267h109l-17 -267h-75z" />
    <glyph glyph-name="at" unicode="@" horiz-adv-x="471" 
d="M367 177l-12 28q-18 -21 -34.5 -29.5t-39.5 -8.5q-42 0 -61.5 20t-19.5 64v188q0 43 22.5 67t64.5 24q17 0 30 -5.5t30 -20.5v21q0 36 -28 57.5t-76 21.5q-23 0 -43.5 -6.5t-35.5 -19.5q-17 -14 -23 -31t-6 -52v-311q0 -29 4.5 -47.5t14.5 -32.5q16 -19 40 -29.5
t54 -10.5q54 0 99 31l50 -46q-56 -59 -150 -59q-40 0 -78 11t-61 30q-26 21 -41 56.5t-15 74.5v349q0 81 49 123.5t141 42.5q89 0 138.5 -42.5t49.5 -118.5v-339h-63zM283 273q0 -21 7 -29.5t25 -8.5t25 8.5t7 29.5v151q0 22 -7 30t-25 8t-25 -8t-7 -30v-151z" />
    <glyph glyph-name="numbersign" unicode="#" horiz-adv-x="441" 
d="M326 667h66l-36 -190h55l-12 -68h-56l-29 -159h60l-13 -68h-60l-34 -182h-66l34 182h-84l-34 -182h-66l34 182h-55l14 68h53l30 159h-58l15 67h56l35 191h66l-35 -190h84zM193 409l-30 -159h85l30 159h-85z" />
    <glyph glyph-name="degree" unicode="&#xb0;" horiz-adv-x="380" 
d="M193 674q29 0 54.5 -11.5t45 -31t30.5 -45.5t11 -56t-11 -56.5t-30.5 -46t-45.5 -30.5t-56 -11t-56.5 11t-46 30.5t-30.5 45.5t-11 56t11.5 56.5t31 46t46 31t57.5 11.5zM189 606q-30 0 -52.5 -23t-22.5 -53q0 -32 22.5 -54.5t53.5 -22.5q32 0 54.5 22.5t22.5 53.5
q0 32 -23 54.5t-55 22.5z" />
    <glyph glyph-name="plus" unicode="+" 
d="M373 302h-127v-125h-81v125h-127v79h127v122h81v-122h127v-79z" />
    <glyph glyph-name="minus" unicode="&#xad;" 
d="M373 302h-335v79h335v-79z" />
    <glyph glyph-name="multiply" unicode="&#xd7;" 
d="M351 432l-90 -90l89 -88l-58 -58l-88 88l-90 -89l-56 56l90 90l-87 86l58 58l86 -87l90 90z" />
    <glyph glyph-name="divide" unicode="&#xf7;" 
d="M373 302h-335v79h335v-79zM247 157h-83v91h83v-91zM247 432h-83v91h83v-91z" />
    <glyph glyph-name="equal" unicode="=" 
d="M373 217h-335v79h335v-79zM373 384h-335v79h335v-79z" />
    <glyph glyph-name="trademark" unicode="&#x2122;" horiz-adv-x="583" 
d="M162 287h-67v320h-75v60h217v-60h-75v-320zM543 287h-64v253l-59 -253h-42l-59 253v-253h-64v380h94l50 -217l51 217h93v-380z" />
    <glyph glyph-name="paragraph" unicode="&#xb6;" horiz-adv-x="418" 
d="M189 320q-32 1 -59 15t-47 37t-31.5 54t-11.5 66q0 38 12.5 70t35 55.5t53.5 36.5t68 13h172v-30h-40v-737h-48v737h-55v-737h-49v420z" />
    <glyph glyph-name="currency" unicode="&#xa4;" horiz-adv-x="416" 
d="M379 225l-57 -57l-41 41q-18 -10 -35 -14.5t-37 -4.5t-36 4t-36 15l-43 -42l-56 56l44 44q-10 20 -13.5 33.5t-3.5 32.5q0 20 4 36t15 36l-42 42l58 58l43 -44q20 9 34.5 12.5t31.5 3.5q19 0 33.5 -3.5t33.5 -12.5l47 47l56 -56l-46 -46q11 -19 15 -35.5t4 -36.5
q0 -19 -3.5 -34t-11.5 -32zM207 409q-15 0 -28.5 -6t-24 -16.5t-16.5 -24t-6 -28.5q0 -32 22.5 -54.5t53.5 -22.5q32 0 54.5 22.5t22.5 52.5q0 32 -23 54.5t-55 22.5z" />
    <glyph glyph-name="quotesinglbase" unicode="&#x201a;" horiz-adv-x="177" 
d="M137 0l-59 -138h-38l44 138h-44v107h97v-107z" />
    <glyph glyph-name="quoteright" unicode="&#x2019;" horiz-adv-x="177" 
d="M137 560l-59 -138h-38l44 138h-44v107h97v-107z" />
    <glyph glyph-name="braceleft" unicode="{" horiz-adv-x="293" 
d="M175 401q0 -48 -12 -73t-44 -42q32 -18 44 -44t12 -74v-84q0 -27 4 -45t15 -28t29.5 -14.5t47.5 -4.5v-86q-43 0 -69 1t-42.5 4.5t-26.5 9.5t-20 17q-18 18 -26 45t-8 70v101q0 44 -12.5 65t-44.5 29v79q31 8 44 29t13 61v113q0 39 8.5 64.5t27.5 42.5q10 10 20.5 16
t27 9t42 4t66.5 1v-92q-29 0 -47.5 -4.5t-29.5 -14t-15 -26.5t-4 -43v-86z" />
    <glyph glyph-name="braceright" unicode="}" horiz-adv-x="293" 
d="M119 168q0 48 12 74t44 44q-32 17 -44 42t-12 73v86q0 26 -4 43t-15 26.5t-29.5 14t-47.5 4.5v92q41 0 66.5 -1t42 -4t26.5 -9t21 -16q19 -17 27.5 -42.5t8.5 -64.5v-113q0 -40 13 -61t44 -29v-79q-32 -8 -44.5 -29t-12.5 -65v-101q0 -43 -8 -70t-26 -45
q-11 -11 -20.5 -17t-26 -9.5t-42.5 -4.5t-69 -1v86q29 0 47.5 4.5t29.5 14.5t15 28t4 45v84z" />
    <glyph glyph-name="ordfeminine" unicode="&#xaa;" horiz-adv-x="263" 
d="M165 267q-3 8 -3.5 12.5t-2.5 16.5q-18 -19 -33 -26t-33 -7q-31 0 -48.5 21.5t-17.5 59.5q0 29 13 49t42 37q11 6 27 13l50 21v13q0 22 -6 30.5t-20 8.5q-15 0 -22 -9.5t-9 -32.5h-69q8 97 108 97q43 0 66 -23q11 -12 14.5 -25.5t3.5 -42.5v-130q0 -17 0.5 -29t1 -21
t2 -16.5t4.5 -16.5h-68zM159 415q-34 -17 -48.5 -33t-14.5 -35q0 -13 7 -21t18 -8q22 0 38 24v73z" />
    <glyph glyph-name="ordmasculine" unicode="&#xba;" horiz-adv-x="256" 
d="M226 371q0 -35 -5.5 -53.5t-20.5 -32.5q-26 -24 -72 -24q-48 0 -73 25q-15 14 -20.5 32t-5.5 53v91q0 35 5.5 53.5t20.5 32.5q25 25 73 25q47 0 72 -25q15 -14 20.5 -32t5.5 -54v-91zM95 368q0 -50 33 -50q32 0 32 50v97q0 27 -7.5 39t-24.5 12t-25 -12t-8 -39v-97z" />
    <glyph glyph-name="plusminus" unicode="&#xb1;" 
d="M373 48h-335v79h335v-79zM373 299h-127v-126h-81v126h-127v79h127v122h81v-122h127v-79z" />
    <glyph glyph-name="onehalf" unicode="&#xbd;" horiz-adv-x="673" 
d="M187 267h-69v301h-62v42q28 11 53 27t36 30h42v-400zM433 700h57l-255 -733h-52zM636 0h-215v58l80.5 97.5t46.5 63t21 43.5t5 37q0 46 -38 46q-42 0 -42 -52v-14h-69v19q0 51 29.5 79.5t83.5 28.5q50 0 78.5 -28.5t28.5 -78.5q0 -48 -28 -92q-8 -12 -13 -20.5t-14 -20
l-25 -31l-44 -53.5l-18 -22h133v-60z" />
    <glyph glyph-name="onequarter" unicode="&#xbc;" horiz-adv-x="673" 
d="M187 267h-69v301h-62v42q28 11 53 27t36 30h42v-400zM433 700h57l-255 -733h-52zM409 100v66l128 234h73v-240h48v-60h-48v-100h-69v100h-132zM543 303l-72 -145h72v145z" />
    <glyph glyph-name="threequarters" unicode="&#xbe;" horiz-adv-x="673" 
d="M117 508q35 1 46.5 11t11.5 40q0 53 -38 53q-17 0 -27.5 -11.5t-10.5 -30.5v-4.5t1 -5.5h-69v11q0 46 30 74t78 28q50 0 76.5 -29.5t26.5 -83.5q0 -33 -10.5 -52t-34.5 -30q27 -8 39.5 -30t12.5 -63q0 -60 -29.5 -92.5t-83.5 -32.5q-31 0 -56 13t-39 36q-8 14 -11.5 31
t-3.5 45h70l1 -11q3 -53 40 -53q41 0 41 63q0 35 -13 48t-48 14v62zM434 700h56l-254 -733h-52zM410 100v66l127 234h73v-240h49v-60h-49v-100h-69v100h-131zM543 303l-71 -145h71v145z" />
    <glyph glyph-name="fraction" horiz-adv-x="120" 
d="M157 700h56l-254 -733h-52z" />
    <glyph glyph-name="percent" unicode="%" horiz-adv-x="537" 
d="M215 433q0 -116 -92 -116q-93 0 -93 116v124q0 117 93 117q92 0 92 -117v-124zM90 423q0 -30 7 -41.5t26 -11.5q18 0 25 11.5t7 41.5v145q0 30 -7 41.5t-25 11.5q-19 0 -26 -11.5t-7 -41.5v-145zM434 667l-276 -667h-55l276 667h55zM507 110q0 -117 -92 -117
q-93 0 -93 117v124q0 116 93 116q92 0 92 -116v-124zM382 99q0 -30 7 -41.5t26 -11.5q18 0 25 11.5t7 41.5v145q0 30 -7 41.5t-25 11.5q-19 0 -26 -11.5t-7 -41.5v-145z" />
    <glyph glyph-name="perthousand" unicode="&#x2030;" horiz-adv-x="770" 
d="M215 433q0 -116 -92 -116q-93 0 -93 116v124q0 117 93 117q92 0 92 -117v-124zM90 423q0 -30 7 -41.5t26 -11.5q18 0 25 11.5t7 41.5v145q0 30 -7 41.5t-25 11.5q-19 0 -26 -11.5t-7 -41.5v-145zM434 667l-276 -667h-55l276 667h55zM507 110q0 -117 -92 -117t-92 117v124
q0 116 92 116t92 -116v-124zM383 99q0 -30 7 -41.5t25 -11.5t25 11.5t7 41.5v145q0 30 -7 41.5t-25 11.5t-25 -11.5t-7 -41.5v-145zM740 110q0 -117 -92 -117t-92 117v124q0 116 92 116t92 -116v-124zM616 99q0 -30 7 -41.5t25 -11.5t25 11.5t7 41.5v145q0 30 -7 41.5
t-25 11.5t-25 -11.5t-7 -41.5v-145z" />
    <glyph glyph-name="backslash" unicode="\" horiz-adv-x="371" 
d="M354 -67h-84l-247 734h84z" />
    <glyph glyph-name="dieresis" unicode="&#xa8;" horiz-adv-x="500" 
d="M217 578h-87v89h87v-89zM370 578h-87v89h87v-89z" />
    <glyph glyph-name="dotaccent" horiz-adv-x="500" 
d="M294 578h-87v89h87v-89z" />
    <glyph glyph-name="ring" horiz-adv-x="500" 
d="M251 692q30 0 51.5 -20.5t21.5 -48.5q0 -30 -21.5 -50.5t-51.5 -20.5q-31 0 -52.5 20.5t-21.5 49.5t21.5 49.5t52.5 20.5zM250 657q-15 0 -25.5 -10.5t-10.5 -24.5t10.5 -24.5t26.5 -10.5q15 0 25.5 10.5t10.5 24.5q0 15 -10.5 25t-26.5 10z" />
    <glyph glyph-name="acute" unicode="&#xb4;" horiz-adv-x="500" 
d="M248 667h96l-72 -89h-70z" />
    <glyph glyph-name="grave" unicode="`" horiz-adv-x="500" 
d="M221 578l-72 89h97l45 -89h-70z" />
    <glyph glyph-name="circumflex" unicode="&#x2c6;" horiz-adv-x="500" 
d="M302 667l63 -89h-84l-31 34l-31 -34h-84l63 89h104z" />
    <glyph glyph-name="caron" horiz-adv-x="500" 
d="M198 578l-63 89h84l31 -34l31 34h84l-63 -89h-104z" />
    <glyph glyph-name="breve" horiz-adv-x="500" 
d="M364 631q-18 -24 -47.5 -37t-66.5 -13q-38 0 -67.5 13t-47.5 37l60 34q16 -10 28 -14t27 -4q26 0 54 18z" />
    <glyph glyph-name="tilde" unicode="&#x2dc;" horiz-adv-x="500" 
d="M150 652q15 8 28 11.5t30 3.5q11 0 20.5 -1.5t23.5 -6.5q22 -8 30.5 -9.5t19.5 -1.5t20 3t28 14v-69q-18 -11 -27.5 -14t-20.5 -3q-6 0 -10.5 0.5t-9.5 1.5t-12 3t-18 6q-14 5 -23.5 6.5t-20.5 1.5q-17 0 -30 -3.5t-28 -11.5v69z" />
    <glyph glyph-name="hungarumlaut" unicode="&#xa;" horiz-adv-x="500" 
d="M185 667h96l-72 -89h-70zM325 667h96l-72 -89h-70z" />
    <glyph glyph-name="cedilla" unicode="&#xb8;" horiz-adv-x="500" 
d="M290 -114l-22 -56h-47l17 56h-28v68h80v-68z" />
    <glyph glyph-name="ogonek" horiz-adv-x="500" 
d="M310 0q-49 -40 -49 -76q0 -37 48 -37q8 0 14.5 1t15.5 5l-8 -57q-11 -4 -19 -5.5t-20 -1.5q-42 0 -66.5 20t-24.5 53q0 26 13.5 49t43.5 49h52z" />
    <glyph glyph-name="macron" unicode="&#xaf;" horiz-adv-x="500" 
d="M148 656h205v-67h-205v67z" />
    <glyph glyph-name="copyright" unicode="&#xa9;" horiz-adv-x="778" 
d="M394 679q70 0 131.5 -27.5t108 -74.5t73.5 -110t27 -134t-27 -134t-74 -110t-109.5 -74t-134.5 -27q-71 0 -134 27t-110 74t-74 110t-27 134q0 72 27 135.5t74.5 110t111 73.5t137.5 27zM386 623q-58 0 -109 -23t-89.5 -62.5t-61 -92t-22.5 -111.5q0 -60 22.5 -113
t61 -92t90.5 -62t111 -23t111 23t90.5 62t61 91.5t22.5 112.5q0 61 -22.5 114t-61.5 92t-91.5 61.5t-112.5 22.5zM431 400l-1 11q-2 36 -11.5 51t-31.5 15q-23 0 -32 -16t-9 -57v-130q0 -46 9.5 -63.5t33.5 -17.5t33 18.5t10 68.5h68v-17q0 -66 -28.5 -100t-82.5 -34
q-64 0 -92 45q-11 19 -15 41.5t-4 66.5v110q0 24 1 40.5t4 29t7.5 22.5t11.5 19q28 38 86 38q57 0 83.5 -34.5t26.5 -106.5h-67z" />
    <glyph glyph-name="registered" unicode="&#xae;" horiz-adv-x="778" 
d="M394 679q70 0 131.5 -27.5t108 -74.5t73.5 -110t27 -134t-27 -134t-74 -110t-109.5 -74t-134.5 -27q-71 0 -134 27t-110 74t-74 110t-27 134q0 73 27 136t74.5 109.5t111 73.5t137.5 27zM386 623q-58 0 -109 -23t-89.5 -62.5t-61 -92t-22.5 -111.5q0 -60 22.5 -113
t61 -92t90.5 -62t111 -23t111 23t90.5 62t61 91.5t22.5 112.5q0 61 -22.5 114t-61.5 92t-91.5 61.5t-112.5 22.5zM356 132h-68v400h99q57 0 86.5 -29.5t29.5 -86.5q0 -75 -52 -104l59 -180h-71l-52 161h-31v-161zM375 356q33 0 45.5 12.5t12.5 44.5t-12.5 44t-45.5 12h-19
v-113h19z" />
    <glyph glyph-name="Acircumflex" unicode="&#xc2;" horiz-adv-x="451" 
d="M155 145l-27 -145h-101l128 667h141l135 -667h-106l-28 145h-142zM225 539l-54 -299h109zM278 809l63 -89h-84l-31 34l-31 -34h-84l63 89h104z" />
    <glyph glyph-name="nonbreakingspace" horiz-adv-x="153" 
 />
    <glyph glyph-name="bullet" unicode="&#x2022;" horiz-adv-x="667" 
d="M337 478q28 0 52.5 -11t43 -30t29.5 -44t11 -53q0 -29 -11 -54.5t-29.5 -44t-44 -29.5t-53.5 -11q-29 0 -54 11t-44 29.5t-30 43.5t-11 54t11 54.5t30 44t44.5 29.5t55.5 11z" />
    <glyph glyph-name="less" unicode="&#x3c;" horiz-adv-x="500" 
d="M466 490l-325 -154l325 -155v-100l-433 212v86l433 212v-101z" />
    <glyph glyph-name="greater" unicode="&#x3e;" horiz-adv-x="500" 
d="M34 182l325 154l-325 155v100l433 -212v-87l-433 -211v101z" />
    <glyph glyph-name="logicalnot" unicode="&#xac;" horiz-adv-x="500" 
d="M367 193h-334v89h433v-282h-99v193z" />
    <glyph glyph-name="asciicircum" unicode="^" horiz-adv-x="500" 
d="M26 366l167 303h114l167 -303h-93l-132 234l-130 -234h-93z" />
    <glyph glyph-name="bar" unicode="|" horiz-adv-x="500" 
d="M301 667v-834h-102v834h102z" />
    <glyph glyph-name="brokenbar" unicode="&#xa6;" horiz-adv-x="500" 
d="M301 667v-340h-102v340h102zM301 153v-320h-102v320h102z" />
    <glyph glyph-name="underscore" unicode="_" horiz-adv-x="500" 
d="M500 -66v-64h-500v64h500z" />
    <glyph glyph-name="asciitilde" unicode="~" horiz-adv-x="667" 
d="M94 613q52 120 140 120q20 0 45.5 -8.5t69.5 -28.5l34 -16t22.5 -9.5t16 -4.5t14.5 -1q26 0 46 16.5t40 54.5l52 -42q-26 -62 -62 -90.5t-87 -28.5q-9 0 -18 1.5t-21 6t-30.5 12.5t-46.5 22t-46.5 19.5t-34.5 5.5q-23 0 -42 -16.5t-40 -54.5z" />
    <glyph glyph-name="mu" unicode="&#xb5;" horiz-adv-x="385" 
d="M341 497v-497h-93v57q-25 -64 -68 -64q-15 0 -25 7t-19 24v-194h-93v667h93v-353q0 -42 10.5 -59t35.5 -17q38 0 66 62v367h93z" />
    <glyph glyph-name="Adieresis" unicode="&#xc4;" horiz-adv-x="451" 
d="M155 145l-27 -145h-101l128 667h141l135 -667h-106l-28 145h-142zM225 539l-54 -299h109zM196 720h-87v89h87v-89zM349 720h-87v89h87v-89z" />
    <glyph glyph-name="Aacute" unicode="&#xc1;" horiz-adv-x="451" 
d="M155 145l-27 -145h-101l128 667h141l135 -667h-106l-28 145h-142zM225 539l-54 -299h109zM224 809h96l-72 -89h-70z" />
    <glyph glyph-name="Agrave" unicode="&#xc0;" horiz-adv-x="451" 
d="M155 145l-27 -145h-101l128 667h141l135 -667h-106l-28 145h-142zM225 539l-54 -299h109zM197 720l-72 89h97l45 -89h-70z" />
    </font>
</defs>
</svg>
